<svg width="120" height="47" viewBox="0 0 120 47" fill="none" xmlns="http://www.w3.org/2000/svg">
<path d="M98.8063 33.2932C98.6319 33.0452 98.4384 32.8122 98.2276 32.5964C97.8834 32.1936 97.5103 31.8181 97.1114 31.473L96.9599 31.3593C96.9162 31.3046 96.8651 31.2567 96.8083 31.2171C96.4638 30.89 95.9677 30.5061 95.5544 30.6483C95.4881 30.6671 95.4269 30.7011 95.3752 30.7478C95.231 30.8039 95.103 30.8968 95.0031 31.018L94.2315 31.7716L94.1075 31.8996L92.0818 33.8335L91.9578 33.9615L90.6901 35.1844L90.3594 35.5115L89.2157 36.6064L88.0719 37.7014C88.0051 37.7652 87.9513 37.8421 87.9134 37.9275C87.8756 38.0129 87.8545 38.1052 87.8514 38.1991C87.8461 38.3939 87.9154 38.5829 88.0444 38.7252C88.1084 38.7919 88.1846 38.8448 88.2686 38.8809C88.3526 38.917 88.4426 38.9355 88.5336 38.9355C88.6245 38.9355 88.7145 38.917 88.7985 38.8809C88.8825 38.8448 88.9587 38.7919 89.0227 38.7252L91.0208 36.8198C91.0208 36.9335 91.0208 37.0615 90.9519 37.1895C90.737 39.0493 89.983 40.7989 88.7885 42.2091C87.9483 43.0764 86.942 43.7533 85.834 44.1965C84.7259 44.6396 83.5404 44.8394 82.3533 44.783C82.3253 44.2269 82.3531 43.6694 82.436 43.1192C82.6051 41.831 83.0783 40.6053 83.814 39.55C83.8956 39.4498 83.9439 39.3252 83.9518 39.1945C83.974 39.0695 83.9596 38.9406 83.9105 38.8241C83.8614 38.7077 83.7798 38.6089 83.6762 38.5404C83.603 38.4851 83.5199 38.4453 83.4317 38.4232C83.3436 38.4011 83.252 38.3973 83.1624 38.4118C83.0728 38.4264 82.9868 38.459 82.9095 38.5079C82.8321 38.5568 82.7649 38.621 82.7116 38.6968C81.8033 39.9463 81.2199 41.4149 81.0167 42.9628C80.8641 43.8661 80.8641 44.7898 81.0167 45.6931C81.0508 45.8524 81.136 45.9953 81.2585 46.0985C81.3811 46.2017 81.5337 46.2593 81.6919 46.2618C83.2597 46.3162 84.824 46.0753 86.3081 45.5508C87.6234 45.0596 88.8083 44.2558 89.7668 43.2045C90.9692 41.8275 91.7924 40.1434 92.1508 38.3271C92.1508 38.0285 92.261 37.7298 92.3023 37.4312C92.3818 36.8992 92.4278 36.3625 92.4401 35.8243V35.4262L95.4441 32.5822L95.5957 32.4258L95.6921 32.312L95.8575 32.44L95.9539 32.5395C96.1374 32.6799 96.3123 32.8318 96.4776 32.9946C96.6131 33.125 96.7419 33.2626 96.8634 33.4069C96.9461 33.4922 97.0287 33.5634 97.1114 33.6629C98.3879 34.9956 99.243 36.6961 99.5642 38.5404C99.6955 39.7572 99.5822 40.9889 99.2313 42.1584C98.8804 43.3279 98.2995 44.4102 97.5248 45.3376C96.0365 44.2513 94.9639 42.6614 94.4933 40.844C94.4639 40.7282 94.4015 40.6242 94.3141 40.5454C94.2315 40.445 94.1225 40.3715 94.0002 40.3336C93.878 40.2958 93.7477 40.2953 93.6252 40.3321C93.4537 40.391 93.3102 40.5146 93.2233 40.6781C93.1365 40.8416 93.1126 41.0329 93.1566 41.2138C93.5355 42.7125 94.2695 44.0905 95.2925 45.2238C95.8836 45.9047 96.5825 46.4769 97.3595 46.916C97.5001 46.9945 97.6631 47.019 97.8195 46.9852C97.9759 46.9513 98.1157 46.8613 98.2138 46.7311C99.238 45.5093 100.032 44.1012 100.556 42.5789C101.015 41.2095 101.148 39.7462 100.942 38.3129C100.679 36.4724 99.9413 34.7387 98.8063 33.2932ZM81.8297 35.4262C80.2622 35.3814 78.716 35.0392 77.2686 34.4166C77.1178 34.3616 76.9914 34.252 76.9129 34.1082C76.8343 33.9644 76.809 33.7961 76.8414 33.6344C77.0107 32.7347 77.3226 31.8699 77.7647 31.0749C78.4895 29.7252 79.5321 28.5857 80.7962 27.7616C80.9448 27.6558 81.1276 27.6145 81.3054 27.6464C81.4832 27.6783 81.6418 27.781 81.747 27.9322C81.8187 28.044 81.8569 28.175 81.8569 28.3091C81.8569 28.4431 81.8187 28.5742 81.747 28.6859C81.6956 28.7936 81.614 28.8828 81.5128 28.9419C80.4422 29.6547 79.5612 30.6323 78.9497 31.7859C78.688 32.274 78.4756 32.7886 78.3159 33.3216C79.4081 33.7996 80.5847 34.0376 81.771 34.0205C82.9572 34.0033 84.127 33.7314 85.2058 33.2221C86.8081 32.3377 88.1144 30.9747 88.9538 29.3116C89.0321 29.2245 89.1014 29.1291 89.1605 29.0272C89.2612 28.8691 89.3488 28.7027 89.4223 28.5295C89.5188 28.3162 89.6015 28.1029 89.6842 27.8754C89.6812 27.8327 89.6812 27.79 89.6842 27.7474C89.6842 27.7474 89.7531 27.6194 89.7668 27.5483H89.6152L89.4223 27.463L85.8534 25.4011H85.6743H85.4813C84.9848 25.5562 84.4783 25.675 83.9656 25.7566C83.6762 25.7566 83.3868 25.8561 83.0837 25.8846C81.2997 26.0856 79.4957 25.8063 77.8474 25.074C76.584 24.4502 75.4797 23.5297 74.6229 22.3864C73.6852 21.1058 72.9803 19.6605 72.5422 18.1204C72.4981 17.964 72.5053 17.7971 72.5626 17.6454C72.6199 17.4937 72.7242 17.3657 72.8591 17.2814C73.6482 16.8579 74.5006 16.5743 75.3808 16.4424C76.8562 16.1756 78.373 16.2979 79.7903 16.7979C79.9642 16.8568 80.109 16.9833 80.1939 17.1506C80.2789 17.3179 80.2972 17.5128 80.245 17.6938C80.2081 17.8181 80.1382 17.9293 80.0432 18.0147C79.9483 18.1002 79.832 18.1565 79.7076 18.1773C79.5898 18.2058 79.4672 18.2058 79.3494 18.1773C78.1477 17.7614 76.866 17.6541 75.6151 17.8644C75.084 17.9618 74.5628 18.1093 74.0579 18.3053C74.3724 19.4867 74.9221 20.5875 75.6718 21.5374C76.4215 22.4874 77.3549 23.2657 78.4123 23.8226C80.0796 24.5609 81.9248 24.7592 83.7038 24.3914H84.0758L81.7057 22.9694C81.546 22.8741 81.429 22.7178 81.38 22.5342C81.331 22.3506 81.354 22.1545 81.4439 21.9882C81.4824 21.9022 81.5398 21.8265 81.6116 21.7673C81.6833 21.7081 81.7675 21.6669 81.8573 21.647C81.9419 21.6082 82.0334 21.5881 82.126 21.5881C82.2185 21.5881 82.3101 21.6082 82.3947 21.647L83.7726 22.4291L85.1506 23.2112L85.564 23.4245L87.0798 24.3061H87.2314L89.6566 25.7281L89.8082 25.8134C90.1251 25.9983 90.4283 26.169 90.7452 26.3254C90.882 26.3943 91.0038 26.491 91.1035 26.6098C91.1603 26.6504 91.2075 26.7039 91.2413 26.7662C91.5031 27.1359 91.3102 27.7332 91.1035 28.1882C91.0866 28.2521 91.0635 28.314 91.0346 28.3731C91.0389 28.4346 91.0389 28.4964 91.0346 28.5579C90.8346 29.0466 90.6044 29.5216 90.3456 29.9799C90.2078 30.2359 90.0562 30.5061 89.8909 30.762C88.9417 32.3314 87.6054 33.6123 86.0188 34.4734C84.7107 35.1601 83.2551 35.4929 81.7884 35.4404L81.8297 35.4262ZM81.623 28.5437C81.623 28.5437 81.5817 28.5864 81.5817 28.5579L81.623 28.5437ZM82.5325 14.7787C82.0859 13.2259 81.9224 11.6009 82.0502 9.98653C82.0582 9.82141 82.1218 9.66439 82.23 9.54241C82.3381 9.42043 82.484 9.34116 82.6427 9.31823C83.5202 9.20901 84.4091 9.24741 85.2746 9.43197C86.744 9.7379 88.1198 10.4063 89.2845 11.3801C89.4237 11.502 89.5137 11.6732 89.5366 11.8601C89.5596 12.0469 89.5139 12.2359 89.4086 12.3897C89.3303 12.4925 89.225 12.57 89.1053 12.6128C88.9856 12.6557 88.8565 12.6621 88.7334 12.6315C88.6157 12.6204 88.5046 12.5705 88.4164 12.4893C87.4356 11.6534 86.264 11.0905 85.0128 10.854C84.4832 10.7366 83.9421 10.6841 83.4006 10.6975C83.3045 11.9178 83.4517 13.1456 83.8333 14.3049C84.2149 15.4642 84.8226 16.5304 85.6191 17.4379C86.9356 18.7295 88.5958 19.586 90.3869 19.8979H90.7314L91.2826 19.9974C91.5031 19.9974 91.7236 19.9974 91.9578 19.9974H92.0956H92.3023C92.3023 19.9974 92.3023 19.8695 92.3023 19.841V19.6278L93.0878 15.4897L92.9913 15.3333L92.8811 15.1626C92.5861 14.7064 92.3191 14.2314 92.0818 13.7406C91.944 13.4847 91.82 13.2003 91.696 12.9159C90.9534 11.2293 90.6586 9.36934 90.8417 7.52649C91.013 6.09345 91.5138 4.72343 92.3023 3.53066C93.2076 2.20879 94.3375 1.06699 95.637 0.160522C95.7619 0.0566436 95.9175 0 96.0779 0C96.2384 0 96.394 0.0566436 96.5189 0.160522C97.1402 0.81423 97.6607 1.56236 98.0622 2.37884C98.7617 3.74493 99.1171 5.27058 99.0957 6.81549C99.0975 6.91005 99.0811 7.00401 99.0473 7.09192C99.0135 7.17983 98.963 7.25989 98.8989 7.32743C98.8347 7.39497 98.7581 7.44865 98.6736 7.48526C98.5891 7.52188 98.4984 7.54074 98.4067 7.54072C98.2822 7.54428 98.1592 7.51144 98.0519 7.44603C97.9447 7.38062 97.8575 7.28529 97.8004 7.17099C97.7409 7.05775 97.7123 6.92995 97.7177 6.80125C97.7288 5.49562 97.4308 4.20697 96.8496 3.04719C96.5938 2.5459 96.294 2.0699 95.9539 1.62518C94.9666 2.30367 94.1263 3.1859 93.486 4.21628C92.8456 5.24666 92.4191 6.40282 92.2334 7.61181C92.0609 9.47763 92.4456 11.3533 93.3358 12.987L93.4874 13.3282L94.011 10.5838C94.0508 10.3971 94.1592 10.2335 94.3133 10.1275C94.4675 10.0214 94.6554 9.98111 94.8378 10.015C94.9278 10.0342 95.0131 10.0717 95.0889 10.1254C95.1646 10.1792 95.2292 10.248 95.2787 10.3278C95.3865 10.4845 95.431 10.6783 95.4028 10.8682L95.0858 12.4466L94.7964 14.0108L94.7138 14.4801L94.3831 16.2291V16.414L93.8456 19.258V19.4429C93.7626 19.7945 93.6982 20.1505 93.6527 20.5094C93.6276 20.6689 93.5763 20.8227 93.5011 20.9644C93.4773 21.0303 93.4449 21.0925 93.4047 21.1493C93.1429 21.5048 92.5365 21.5048 92.0267 21.4479H91.6409C91.1177 21.4061 90.5976 21.3301 90.0838 21.2204C89.7952 21.1728 89.5098 21.1063 89.2294 21.0213C87.4892 20.5736 85.8959 19.6557 84.6132 18.3621C83.6411 17.3689 82.9134 16.1499 82.4911 14.8071L82.5325 14.7787ZM119.476 18.4048C119.08 19.2207 118.559 19.965 117.933 20.6089C116.883 21.7099 115.586 22.5257 114.157 22.9837C114.07 23.0147 113.978 23.0276 113.887 23.0214C113.795 23.0153 113.705 22.9902 113.623 22.9478C113.541 22.9054 113.468 22.8465 113.408 22.7745C113.348 22.7025 113.303 22.6189 113.275 22.5286C113.23 22.4101 113.221 22.2805 113.248 22.1564C113.275 22.0323 113.337 21.9193 113.427 21.8318C113.515 21.7394 113.624 21.671 113.744 21.6327C114.952 21.2358 116.048 20.543 116.94 19.6135C117.316 19.2119 117.653 18.7738 117.946 18.3053C117.016 17.5449 115.943 16.9918 114.795 16.6809C113.647 16.3701 112.449 16.3083 111.277 16.4993C109.506 16.9148 107.897 17.8712 106.661 19.2438L106.413 19.4997L109.1 19.1727C109.282 19.1525 109.465 19.2066 109.609 19.3235C109.753 19.4404 109.847 19.6108 109.871 19.7984C109.885 19.8929 109.88 19.9893 109.857 20.0818C109.833 20.1743 109.792 20.261 109.735 20.3366C109.679 20.4123 109.608 20.4754 109.527 20.5222C109.446 20.569 109.357 20.5984 109.265 20.6089L107.708 20.7938L106.179 20.9929H105.71L103.988 21.2062H103.808L101.052 21.5474H100.873C100.515 21.5474 100.171 21.6185 99.826 21.6896C99.6764 21.725 99.521 21.725 99.3713 21.6896H99.1646C98.7512 21.5474 98.5721 20.936 98.4756 20.4667V20.2676C98.4756 20.2676 98.4756 20.1254 98.4756 20.0828C98.3548 19.5577 98.2627 19.0259 98.2 18.4901C98.2 18.1915 98.2001 17.8929 98.1312 17.5801C97.9995 15.7357 98.3517 13.8887 99.1508 12.2333C99.8036 10.9436 100.749 9.8361 101.907 9.00538C103.201 8.09721 104.643 7.43724 106.165 7.0572C106.319 7.01075 106.484 7.02247 106.63 7.09023C106.777 7.15798 106.895 7.27734 106.964 7.42694C107.341 8.25754 107.583 9.14623 107.681 10.0577C107.852 11.59 107.658 13.1424 107.116 14.5796C107.053 14.7571 106.926 14.9025 106.761 14.9848C106.597 15.0671 106.407 15.0799 106.234 15.0204C106.114 14.9772 106.008 14.8993 105.93 14.7959C105.852 14.6925 105.804 14.568 105.793 14.4374C105.759 14.3215 105.759 14.1978 105.793 14.0819C106.254 12.8568 106.41 11.5319 106.247 10.2283C106.184 9.67766 106.069 9.13475 105.903 8.60723C104.75 8.89168 103.667 9.41699 102.719 10.1507C101.771 10.8845 100.978 11.8111 100.391 12.8732C99.6068 14.5666 99.3286 16.4624 99.5918 18.3195C99.5918 18.4475 99.5918 18.5612 99.6607 18.675C99.6758 18.8663 99.7034 19.0563 99.7434 19.2438C99.7807 19.4742 99.8314 19.7021 99.895 19.9264C99.9042 19.9733 99.9042 20.0217 99.895 20.0686C99.8905 20.1348 99.8905 20.2013 99.895 20.2676H100.047H100.253L104.304 19.7699L104.428 19.6135L104.553 19.4571C104.87 19.0343 105.21 18.6307 105.572 18.2484L106.206 17.6227C107.533 16.3676 109.159 15.4989 110.919 15.1057C112.293 14.8392 113.708 14.9074 115.053 15.3048C116.552 15.7799 117.954 16.5368 119.187 17.5374C119.321 17.629 119.422 17.7636 119.474 17.9204C119.526 18.0772 119.527 18.2475 119.476 18.4048ZM116.127 29.8093C116.214 29.9471 116.252 30.1117 116.234 30.275C116.217 30.4383 116.145 30.5903 116.031 30.7051C115.382 31.33 114.637 31.8394 113.826 32.2124C112.465 32.8636 110.969 33.1568 109.472 33.0657C109.291 33.0549 109.122 32.9742 108.996 32.8397C108.871 32.7052 108.8 32.5269 108.797 32.3404C108.801 32.2065 108.843 32.0768 108.916 31.9661C108.989 31.8554 109.091 31.7683 109.21 31.7148C109.313 31.6625 109.426 31.6381 109.541 31.6437C110.812 31.7321 112.083 31.4824 113.234 30.9184C113.718 30.6792 114.179 30.3936 114.612 30.0653C113.998 29.0163 113.18 28.1096 112.21 27.4024C111.24 26.6952 110.139 26.2026 108.976 25.9556C107.174 25.7019 105.34 26.0141 103.712 26.8515C103.607 26.8999 103.505 26.9569 103.409 27.0221C103.237 27.0931 103.071 27.1787 102.913 27.2781C102.71 27.3847 102.517 27.5084 102.334 27.6478H102.21L102.031 27.7616L102.113 27.9038L102.21 28.0886L103.932 31.9138L104.112 31.9849L104.291 32.056C104.763 32.234 105.223 32.443 105.669 32.6817C105.93 32.8097 106.192 32.9661 106.454 33.1226C108.015 34.0369 109.313 35.3616 110.216 36.9619C110.889 38.2285 111.263 39.6417 111.305 41.0858C111.332 42.7044 111.07 44.3143 110.533 45.8353C110.477 45.9883 110.374 46.1183 110.239 46.2055C110.105 46.2927 109.947 46.3325 109.789 46.3187C108.913 46.1858 108.065 45.9022 107.281 45.4798C105.939 44.792 104.783 43.7707 103.919 42.5078C103.865 42.4322 103.826 42.3465 103.805 42.2555C103.784 42.1645 103.78 42.0701 103.794 41.9776C103.808 41.8851 103.84 41.7964 103.887 41.7165C103.935 41.6367 103.997 41.5673 104.07 41.5124C104.164 41.4294 104.281 41.378 104.404 41.3653C104.527 41.3526 104.651 41.3791 104.759 41.4413C104.874 41.4894 104.97 41.5741 105.035 41.683C105.771 42.7506 106.751 43.615 107.887 44.2C108.375 44.4403 108.882 44.6354 109.403 44.783C109.821 43.6347 110.001 42.4089 109.932 41.1843C109.864 39.9598 109.547 38.7637 109.003 37.6729C108.08 36.0631 106.706 34.7792 105.062 33.99L104.732 33.8193L105.875 36.3505C105.95 36.5242 105.956 36.7214 105.892 36.8996C105.828 37.0778 105.698 37.2228 105.531 37.3032C105.447 37.3448 105.355 37.3664 105.262 37.3664C105.169 37.3664 105.077 37.3448 104.993 37.3032C104.906 37.2723 104.826 37.2237 104.757 37.1602C104.689 37.0967 104.633 37.0196 104.594 36.9335L103.946 35.5115L103.285 34.0895L103.078 33.6629L102.348 32.0418L102.265 31.8854L101.108 29.2831L101.025 29.1267C100.873 28.7854 100.722 28.4584 100.556 28.1455C100.486 28.0038 100.444 27.8491 100.432 27.6905C100.422 27.6246 100.422 27.5574 100.432 27.4914C100.432 27.0364 100.942 26.6667 101.356 26.4249C101.409 26.3838 101.464 26.3457 101.521 26.3111L101.673 26.2116C102.119 25.9355 102.579 25.6839 103.05 25.4579C103.314 25.3224 103.586 25.2036 103.864 25.1024C105.526 24.4051 107.338 24.1793 109.114 24.4483C110.501 24.682 111.811 25.263 112.931 26.1405C114.181 27.157 115.241 28.4003 116.059 29.8093H116.127ZM109.238 31.9281C109.238 31.9281 109.196 31.8712 109.182 31.8712L109.238 31.9281Z" fill="white"/>
<path d="M3.26749 12.0859H0V36.7146H3.26749V12.0859Z" fill="white"/>
<path d="M67.1425 12.0859H63.875V36.7146H67.1425V12.0859Z" fill="white"/>
<path d="M47.2362 12.0859H43.9688V16.7661H47.2362V12.0859Z" fill="white"/>
<path d="M53.2222 41.0195H49.9902V45.6302H53.2222V41.0195Z" fill="white"/>
<path d="M58.3866 41.0195H55.1191V45.6302H58.3866V41.0195Z" fill="white"/>
<path d="M55.652 21.774V26.6627C55.7397 27.4329 55.6928 28.2191 55.5148 28.9624C55.3368 29.7057 55.0324 30.3868 54.6242 30.955C54.2161 31.5231 53.7148 31.9636 53.1578 32.2434C52.6008 32.5232 52.0026 32.6351 51.4078 32.5708C48.8328 32.5708 47.2346 30.81 47.2346 27.937V21.8435H43.9672V27.7748C43.9951 28.4414 43.9123 29.108 43.7245 29.729C43.5367 30.35 43.2483 30.9106 42.879 31.3727C42.5096 31.8347 42.0682 32.1873 41.5848 32.4061C41.1013 32.6248 40.5874 32.7047 40.0781 32.6403H22.32V17.9512H15.0925C13.185 17.9512 11.3557 18.9398 10.0069 20.6995C8.65812 22.4593 7.90039 24.8459 7.90039 27.3346C7.90039 29.8232 8.65812 32.21 10.0069 33.9697C11.3557 35.7295 13.185 36.7181 15.0925 36.7181H18.8927C18.8824 37.9951 18.5163 39.2235 17.8628 40.1742C17.2092 41.1249 16.3129 41.7329 15.341 41.8847H8.07798V45.6613H15.4476C17.2561 45.6613 18.9906 44.724 20.2694 43.0555C21.5483 41.387 22.2667 39.124 22.2667 36.7644H40.4155C41.429 36.8046 42.436 36.5415 43.3594 35.9953C44.2829 35.4491 45.0982 34.6343 45.743 33.6134C46.4337 34.6167 47.2803 35.4167 48.2264 35.96C49.1726 36.5033 50.1966 36.7775 51.2302 36.7644H52.1714C53.1157 36.737 54.0457 36.4578 54.9043 35.9441C55.7629 35.4304 56.5318 34.693 57.1639 33.7772C57.7959 32.8614 58.2777 31.7866 58.5797 30.6189C58.8816 29.4512 58.9972 28.2152 58.9195 26.9871V21.8899L55.652 21.774ZM19.1235 32.5708H14.9504C14.1941 32.3991 13.4883 31.9607 12.9092 31.3032C12.3302 30.6457 11.8999 29.7941 11.6652 28.8406L11.5586 28.1687C11.541 27.8216 11.541 27.4732 11.5586 27.1261C11.5498 26.9409 11.5498 26.7552 11.5586 26.57C11.6617 25.3575 12.0818 24.2283 12.7484 23.3727C13.4083 22.5107 14.2716 21.9638 15.199 21.8204H19.1591L19.1235 32.5708Z" fill="white"/>
</svg>
