<svg width="350" height="350" viewBox="0 0 350 350" fill="none" xmlns="http://www.w3.org/2000/svg">
<path d="M32.437 241.843L41.789 241.647L46.395 241.57C47.921 241.535 49.447 241.57 50.973 241.528L50.665 241.843L50.623 234.01L50.973 234.36L41.705 234.318C38.618 234.318 35.524 234.234 32.437 234.199L32.626 234.01C32.626 235.291 32.57 236.579 32.535 237.881L32.437 241.843ZM32.437 241.843L32.339 238C32.304 236.698 32.262 235.375 32.248 234.045V233.8H32.437C35.524 233.758 38.618 233.688 41.705 233.681L50.973 233.639H51.323V233.989V241.822V242.137H51.008C49.447 242.137 47.879 242.137 46.325 242.102L41.663 242.025L32.437 241.843Z" fill="#EBEBEB"/>
<path d="M118.488 267.239H68.123V323.008H118.488V267.239Z" fill="url(#paint0_linear_355_4688)"/>
<path d="M42.1239 323.015H68.1289V267.239H42.1239L42.1239 323.015Z" fill="url(#paint1_linear_355_4688)"/>
<path d="M43.9102 319.2C45.8422 315.233 47.7508 311.267 49.6362 307.3L55.2992 295.239L60.8992 283.192C62.7658 279.169 64.5952 275.133 66.3872 271.082C64.4552 275.049 62.5465 279.027 60.6612 283.017L55.0192 295.015L49.4192 307.062C47.5572 311.089 45.7208 315.135 43.9102 319.2Z" fill="#EBEBEB"/>
<path d="M43.9102 271.082C45.7208 275.137 47.5502 279.174 49.3982 283.192L54.9982 295.239L60.6402 307.237C62.5302 311.227 64.4388 315.194 66.3662 319.137C64.5555 315.086 62.7262 311.05 60.8782 307.027L55.2782 294.98L49.6362 282.982C47.7462 279.015 45.8375 275.049 43.9102 271.082Z" fill="#EBEBEB"/>
<path d="M118.488 183.008H68.123V234.934H118.488V183.008Z" fill="url(#paint2_linear_355_4688)"/>
<path d="M42.1239 234.941H68.1289V183.008H42.1239L42.1239 234.941Z" fill="url(#paint3_linear_355_4688)"/>
<path d="M89.0332 195.062H90.1042H90.9022L91.3572 194.131L92.0012 195.062L92.8692 193.151L93.6952 195.062H96.0542H97.1252L97.5172 193.788L97.8812 195.062H98.5812V183.008H89.0332V195.062Z" fill="#263238"/>
<path d="M43.9102 231.63C45.8422 227.944 47.7508 224.234 49.6362 220.5L55.2782 209.3L60.8782 198.1C62.7448 194.367 64.5742 190.608 66.3662 186.823C64.4342 190.519 62.5255 194.225 60.6402 197.939L54.9982 209.104L49.3982 220.304C47.5502 224.08 45.7208 227.855 43.9102 231.63Z" fill="#EBEBEB"/>
<path d="M43.9102 186.852C45.7208 190.618 47.5502 194.367 49.3982 198.101L54.9982 209.301L60.6402 220.501C62.5302 224.234 64.4388 227.939 66.3662 231.617C64.5555 227.846 62.7262 224.087 60.8782 220.34L55.2782 209.14L49.6362 197.975C47.7462 194.255 45.8375 190.548 43.9102 186.852Z" fill="#EBEBEB"/>
<path d="M71.4422 231.714H77.0352V226.121H71.4422V231.714Z" fill="white"/>
<path d="M115.135 234.941H64.7695V267.239H115.135V234.941Z" fill="url(#paint4_linear_355_4688)"/>
<path d="M38.7645 267.239H64.7695V234.941H38.7645V267.239Z" fill="url(#paint5_linear_355_4688)"/>
<path d="M85.6797 246.995H86.7437H87.5487L88.0037 246.064L88.6477 246.995L89.5157 245.084L90.3417 246.995H92.6937H93.7717L94.1567 245.721L94.5277 246.995H95.2277V234.941H85.6797V246.995Z" fill="#263238"/>
<path d="M40.5566 265.3C42.484 262.967 44.3926 260.612 46.2826 258.237L51.9246 251.139L57.5246 244.006C59.3633 241.626 61.1903 239.237 63.0056 236.838C61.083 239.171 59.1743 241.526 57.2796 243.901L51.6376 251.006L46.0376 258.132C44.1943 260.526 42.3673 262.915 40.5566 265.3Z" fill="#DBDBDB"/>
<path d="M40.5566 236.858C42.372 239.257 44.2013 241.646 46.0446 244.026L51.6446 251.159L57.2866 258.257C59.1533 260.619 61.0573 262.966 62.9986 265.299C61.1926 262.901 59.3656 260.511 57.5176 258.131L51.9176 251.005L46.2756 243.9C44.3903 241.558 42.484 239.21 40.5566 236.858Z" fill="#DBDBDB"/>
<path d="M311.234 274.225H260.869V323.015H311.234V274.225Z" fill="url(#paint6_linear_355_4688)"/>
<path d="M234.87 323.015H260.875V274.225H234.87V323.015Z" fill="#C7C7C7"/>
<path d="M281.777 286.279H282.841H283.646L284.101 285.348L284.745 286.279L285.613 284.368L286.439 286.279H288.791H289.869L290.261 284.998L290.625 286.279H291.325V274.225H281.777V286.279Z" fill="#263238"/>
<path d="M236.654 320.11C238.582 316.568 240.49 313.012 242.38 309.442L248.022 298.718L253.622 287.952C255.489 284.354 257.316 280.747 259.103 277.13C257.181 280.672 255.272 284.228 253.377 287.798L247.735 298.515L242.17 309.288C240.322 312.886 238.484 316.493 236.654 320.11Z" fill="#DBDBDB"/>
<path d="M236.654 277.13C238.47 280.747 240.299 284.354 242.142 287.952L247.707 298.718L253.349 309.442C255.239 313.012 257.148 316.568 259.075 320.11C257.269 316.489 255.442 312.881 253.594 309.288L247.994 298.515L242.352 287.798C240.481 284.228 238.582 280.672 236.654 277.13Z" fill="#DBDBDB"/>
<path d="M237.096 265.335H167.32V322.987H237.096V265.335Z" fill="url(#paint7_linear_355_4688)"/>
<path opacity="0.1" d="M237.096 265.335H167.32V322.987H237.096V265.335Z" fill="black"/>
<path d="M264.746 265.342H237.096V322.994H264.746V265.342Z" fill="url(#paint8_linear_355_4688)"/>
<path opacity="0.2" d="M264.746 265.342H237.096V322.994H264.746V265.342Z" fill="black"/>
<path d="M262.835 319.018C260.791 314.921 258.763 310.809 256.752 306.684L250.753 294.28L244.831 281.827C242.871 277.669 240.927 273.497 239 269.311C241.053 273.413 243.083 277.524 245.09 281.645L251.082 294.049L257.004 306.502C258.973 310.66 260.917 314.832 262.835 319.018Z" fill="url(#paint9_linear_355_4688)"/>
<path d="M262.835 269.311C260.912 273.511 258.969 277.683 257.004 281.827L251.082 294.28L245.09 306.684C243.079 310.805 241.049 314.916 239 319.018C240.927 314.818 242.871 310.646 244.831 306.502L250.753 294.049L256.752 281.652C258.763 277.522 260.791 273.408 262.835 269.311Z" fill="url(#paint10_linear_355_4688)"/>
<path d="M207.143 277.795H206.044H205.211L204.742 276.836L204.077 277.795L203.174 275.821L202.327 277.795H199.891H198.778L198.372 276.479L197.994 277.795H197.273V265.342H207.143V277.795Z" fill="#263238"/>
<path d="M241.303 207.689H189.244V265.334H241.303V207.689Z" fill="url(#paint11_linear_355_4688)"/>
<path d="M268.183 207.689H241.303V265.341H268.183V207.689Z" fill="url(#paint12_linear_355_4688)"/>
<path opacity="0.1" d="M268.183 207.689H241.303V265.341H268.183V207.689Z" fill="black"/>
<g opacity="0.1">
<path d="M237.487 261.366C233.665 257.264 229.876 253.153 226.119 249.032L214.898 236.6L203.845 224.147C200.177 219.989 196.546 215.817 192.953 211.631C196.78 215.733 200.569 219.847 204.321 223.972L215.521 236.369L226.574 248.822C230.256 252.999 233.894 257.18 237.487 261.366Z" fill="black"/>
<path d="M237.488 211.659C233.89 215.859 230.259 220.031 226.596 224.175L215.543 236.6L204.343 249.004C200.609 253.125 196.82 257.236 192.975 261.338C196.573 257.138 200.203 252.966 203.867 248.822L214.899 236.397L226.099 224C229.865 219.87 233.661 215.757 237.488 211.659Z" fill="black"/>
</g>
<path d="M264.402 255.583H259.691V262.233H264.402V255.583Z" fill="#263238"/>
<path d="M29.0156 323.015L65.5136 322.84L102.012 322.784L175.001 322.665L247.99 322.784L284.488 322.84L320.986 323.015L284.488 323.183L247.99 323.246L175.001 323.365L102.012 323.246L65.5136 323.183L29.0156 323.015Z" fill="#263238"/>
<path d="M202.805 124.46C202.413 124.208 202.021 123.963 201.629 123.725L201.902 123.27L203.092 124.019L202.805 124.46Z" fill="#263238"/>
<path d="M185.711 194.6H185.207V194.075C186.142 194.096 187.077 194.061 188.007 193.97L188.063 194.495C187.3 194.551 186.502 194.6 185.711 194.6ZM190.905 194.026L190.793 193.515C191.703 193.309 192.597 193.035 193.467 192.696L193.656 193.186C192.761 193.529 191.841 193.805 190.905 194.012V194.026ZM196.246 191.926L195.987 191.471C196.792 191.001 197.557 190.467 198.276 189.875L198.612 190.274C197.871 190.892 197.08 191.447 196.246 191.933V191.926ZM200.677 188.286L200.292 187.929C200.92 187.238 201.498 186.504 202.021 185.731L202.455 186.025C201.918 186.825 201.324 187.586 200.677 188.3V188.286ZM203.883 183.533L203.407 183.309C203.806 182.466 204.132 181.59 204.38 180.691L204.884 180.831C204.63 181.761 204.295 182.668 203.883 183.54V183.533ZM205.395 177.989L204.87 177.947C204.87 177.569 204.919 177.184 204.919 176.813C204.917 176.294 204.887 175.775 204.828 175.259C204.283 175.222 203.741 175.155 203.204 175.056L203.295 174.538C204.15 174.692 205.016 174.772 205.885 174.776H206.067V175.301H205.878H205.353C205.409 175.808 205.437 176.317 205.437 176.827C205.444 177.205 205.423 177.604 205.395 177.996V177.989ZM208.944 174.951L208.825 174.44C209.725 174.227 210.597 173.907 211.422 173.488L211.66 173.957C210.797 174.397 209.886 174.733 208.944 174.958V174.951ZM200.418 174.3C199.513 173.973 198.635 173.576 197.793 173.11L198.052 172.655C198.867 173.105 199.717 173.489 200.593 173.803L200.418 174.3ZM204.184 172.452C203.877 171.577 203.473 170.738 202.98 169.953L203.421 169.673C203.94 170.49 204.362 171.363 204.681 172.277L204.184 172.452ZM214.068 172.34L213.732 171.941C214.442 171.341 215.092 170.673 215.671 169.946L216.077 170.275C215.479 171.036 214.806 171.735 214.068 172.361V172.34ZM195.42 171.5L195.273 171.36C194.58 170.751 194.028 169.999 193.656 169.155L194.146 168.959C194.487 169.731 194.994 170.419 195.63 170.975L195.77 171.101L195.42 171.5ZM217.701 167.923L217.253 167.65C217.743 166.838 218.198 166.005 218.597 165.186L219.073 165.417C218.667 166.25 218.205 167.097 217.701 167.923ZM201.237 167.818C200.597 167.199 199.893 166.649 199.137 166.18L199.032 166.11L199.305 165.662L199.417 165.732C200.197 166.224 200.923 166.799 201.58 167.447L201.237 167.818ZM194.286 166.467L193.852 166.173C194.152 165.752 194.549 165.41 195.01 165.175C195.471 164.941 195.981 164.823 196.498 164.829V165.354C196.068 165.351 195.643 165.451 195.258 165.644C194.874 165.838 194.541 166.12 194.286 166.467ZM220.186 162.778L219.696 162.596C220.02 161.717 220.298 160.822 220.529 159.915L221.033 160.041C220.807 160.969 220.527 161.883 220.193 162.778H220.186ZM221.586 157.227L221.061 157.157C221.186 156.228 221.258 155.294 221.278 154.357H221.803C221.784 155.317 221.712 156.275 221.586 157.227ZM221.18 151.557C221.096 150.617 220.963 149.683 220.781 148.757L221.299 148.652C221.482 149.589 221.617 150.536 221.705 151.487L221.18 151.557ZM220.095 146.055C219.829 145.173 219.514 144.284 219.15 143.402L219.64 143.206C220.004 144.095 220.34 145.005 220.599 145.901L220.095 146.055ZM217.995 140.84C217.575 140.021 217.106 139.195 216.595 138.383L217.043 138.11C217.547 138.929 218.023 139.769 218.443 140.602L217.995 140.84ZM215.048 136.038C214.509 135.282 213.928 134.533 213.326 133.805L213.732 133.469C214.341 134.204 214.929 134.967 215.475 135.73L215.048 136.038ZM211.464 131.684C210.827 130.984 210.155 130.333 209.469 129.689L209.826 129.304C210.526 129.962 211.226 130.641 211.842 131.327L211.464 131.684ZM207.355 127.813C206.655 127.218 205.892 126.63 205.143 126.07L205.451 125.65C206.214 126.21 206.97 126.805 207.691 127.414L207.355 127.813Z" fill="white"/>
<path d="M182.273 194.347C181.802 194.289 181.335 194.205 180.873 194.095L180.999 193.584C180.999 193.584 181.503 193.71 182.343 193.829L182.273 194.347Z" fill="#263238"/>
<path d="M175.211 193.305C174.882 196.105 180.601 197.673 181.035 194.005C181.469 190.337 175.54 190.484 175.211 193.305Z" fill="#263238"/>
<path d="M182.7 197.939C182.168 198.996 180.285 199.143 178.339 197.785C177.017 196.776 175.901 195.524 175.049 194.096C176.694 193.924 178.358 194.069 179.949 194.523C182.252 195.3 183.26 196.868 182.7 197.939Z" fill="#9F50F3"/>
<path d="M175.07 194.096C176.176 194.593 177.261 195.132 178.346 195.664C179.431 196.196 180.502 196.763 181.559 197.351C180.453 196.854 179.368 196.315 178.283 195.783C177.198 195.251 176.127 194.684 175.07 194.096Z" fill="#263238"/>
<path d="M180.153 197.918C179.902 197.626 179.668 197.32 179.453 197.001C179.241 196.684 179.05 196.354 178.879 196.014C179.13 196.305 179.364 196.611 179.579 196.931C179.792 197.247 179.984 197.576 180.153 197.918Z" fill="#263238"/>
<path d="M177.799 195.461C178.184 195.361 178.574 195.281 178.968 195.223C179.365 195.167 179.764 195.132 180.165 195.118C179.39 195.311 178.597 195.426 177.799 195.461Z" fill="#263238"/>
<path d="M177.192 195.923C176.951 195.624 176.779 195.275 176.688 194.901C176.928 195.201 177.1 195.55 177.192 195.923Z" fill="#263238"/>
<path d="M183.625 190.61C183.352 189.455 181.56 188.881 179.355 189.749C177.833 190.426 176.455 191.389 175.295 192.584C176.868 193.129 178.532 193.366 180.195 193.284C182.554 193.088 183.905 191.8 183.625 190.61Z" fill="#9F50F3"/>
<path d="M175.295 192.584C176.485 192.36 177.668 192.08 178.844 191.807C180.02 191.534 181.196 191.24 182.344 190.911C181.161 191.135 179.978 191.415 178.802 191.688C177.626 191.961 176.464 192.255 175.295 192.584Z" fill="#263238"/>
<path d="M181.125 190.036C180.82 190.252 180.528 190.486 180.25 190.736C179.972 190.997 179.708 191.273 179.459 191.562C179.767 191.349 180.059 191.115 180.334 190.862C180.614 190.602 180.878 190.326 181.125 190.036Z" fill="#263238"/>
<path d="M178.256 191.883C178.965 192.252 179.711 192.546 180.482 192.758C179.774 192.386 179.028 192.093 178.256 191.883Z" fill="#263238"/>
<path d="M177.802 191.296C177.65 191.41 177.511 191.542 177.389 191.688C177.268 191.838 177.163 192 177.074 192.171C177.227 192.054 177.365 191.92 177.487 191.772C177.614 191.629 177.72 191.469 177.802 191.296Z" fill="#263238"/>
<path d="M175.21 193.304C175.411 193.328 175.6 193.41 175.754 193.541C175.908 193.671 176.02 193.845 176.075 194.039C176.13 194.233 176.127 194.439 176.066 194.631C176.004 194.824 175.887 194.993 175.729 195.119C175.571 195.245 175.379 195.321 175.178 195.338C174.977 195.355 174.775 195.312 174.599 195.214C174.422 195.117 174.278 194.969 174.185 194.79C174.092 194.611 174.054 194.408 174.076 194.207C174.108 193.938 174.245 193.692 174.457 193.522C174.67 193.353 174.941 193.275 175.21 193.304Z" fill="#999999"/>
<path d="M175.449 191.268C175.583 191.283 175.712 191.325 175.83 191.391C175.947 191.456 176.051 191.545 176.134 191.65C176.218 191.756 176.28 191.877 176.317 192.006C176.353 192.136 176.364 192.271 176.349 192.405C176.333 192.539 176.291 192.668 176.226 192.786C176.16 192.903 176.072 193.007 175.966 193.091C175.861 193.174 175.739 193.236 175.61 193.273C175.48 193.309 175.345 193.32 175.211 193.305C174.941 193.273 174.694 193.136 174.526 192.922C174.357 192.709 174.28 192.437 174.312 192.167C174.343 191.897 174.481 191.651 174.694 191.482C174.907 191.313 175.179 191.236 175.449 191.268Z" fill="#999999"/>
<path d="M112 259.217C112 259.217 97.0756 289.1 97.0686 289.1C95.8366 295.267 94.8706 300.706 94.6256 303.562C94.6219 303.578 94.6219 303.595 94.6256 303.611C94.4964 304.273 94.5227 304.956 94.7026 305.606C94.6989 305.622 94.6989 305.639 94.7026 305.655C96.2916 307.265 145.334 318.556 147.203 318.374C149.072 318.192 148.673 312.921 147.119 310.968C145.565 309.015 128.716 296.268 128.716 296.268L143.304 266.336L112 259.217Z" fill="#D3766A"/>
<path d="M146.459 318.402C144.618 318.584 96.3109 307.286 94.7289 305.683C94.7266 305.667 94.7266 305.651 94.7289 305.634C94.5457 304.985 94.517 304.302 94.6449 303.639C94.639 303.623 94.639 303.606 94.6449 303.59C94.8829 300.734 95.8559 295.295 97.0809 289.121L100.651 281.967L131.598 290.451L128.742 296.317C128.742 296.317 144.842 309.036 146.403 311.017C147.964 312.998 148.307 318.227 146.459 318.402Z" fill="#343F4A"/>
<path d="M147.131 317.618C145.262 317.758 96.1012 305.228 94.5332 303.562C93.9312 302.939 95.3382 295.666 97.2912 286.93L97.3542 286.657L129.162 294.392L129.015 294.924C129.015 294.924 145.682 308.14 147.215 310.156C148.748 312.172 148.993 317.485 147.131 317.618Z" fill="#263238"/>
<path d="M147.054 315.567C138.822 313.257 105.389 304.689 97.0735 303.023C97.0035 303.023 96.9895 303.058 97.0735 303.079C105.186 305.55 138.689 313.845 147.04 315.679C147.201 315.742 147.229 315.616 147.054 315.567Z" fill="white"/>
<path d="M131.655 295.701C128.547 294.259 124.431 293.741 121.351 295.435C121.232 295.498 121.351 295.666 121.435 295.659C124.808 295.447 128.195 295.597 131.536 296.107C131.585 296.11 131.634 296.096 131.674 296.068C131.714 296.039 131.743 295.998 131.757 295.951C131.771 295.904 131.769 295.853 131.75 295.808C131.731 295.762 131.698 295.725 131.655 295.701Z" fill="url(#paint13_linear_355_4688)"/>
<path d="M133.643 297.717C130.542 296.282 126.426 295.764 123.339 297.451C123.22 297.514 123.339 297.682 123.43 297.682C126.803 297.467 130.19 297.617 133.531 298.13C133.582 298.135 133.633 298.122 133.675 298.093C133.718 298.063 133.748 298.02 133.762 297.971C133.775 297.921 133.77 297.869 133.749 297.822C133.727 297.776 133.69 297.738 133.643 297.717Z" fill="url(#paint14_linear_355_4688)"/>
<path d="M135.639 299.74C132.531 298.298 128.415 297.78 125.335 299.467C125.216 299.537 125.335 299.705 125.426 299.698C128.797 299.487 132.181 299.637 135.52 300.146C135.569 300.149 135.618 300.135 135.658 300.107C135.698 300.079 135.728 300.038 135.741 299.99C135.755 299.943 135.753 299.893 135.734 299.847C135.716 299.802 135.682 299.764 135.639 299.74Z" fill="url(#paint15_linear_355_4688)"/>
<path d="M148.329 316.05C149.12 316.61 148.175 319.515 147.482 319.592C146.789 319.669 93.2459 305.767 92.3989 305.326C91.5519 304.885 92.7139 301.707 93.7989 301.826C94.8839 301.945 148.329 316.05 148.329 316.05Z" fill="#787878"/>
<path d="M104.067 294.231C100.959 291.543 96.7734 296.373 99.8674 299.068C102.961 301.763 107.182 296.926 104.067 294.231Z" fill="url(#paint16_linear_355_4688)"/>
<path d="M100.742 279.58L136.61 288.624C136.61 288.624 170.042 228.291 169.293 212.954C168.264 191.8 143.428 126.756 143.428 126.756H113.692C113.692 126.756 133.425 197.071 133.698 208.901C133.817 215.089 100.742 279.58 100.742 279.58Z" fill="#343F4A"/>
<path d="M138.143 281.344C136.232 280.581 119.159 275.653 106.419 272.944C106.405 272.948 106.393 272.957 106.384 272.969C106.376 272.981 106.371 272.996 106.371 273.01C106.371 273.025 106.376 273.039 106.384 273.051C106.393 273.063 106.405 273.072 106.419 273.077C110.43 274.477 135.742 281.148 138.115 281.477C138.171 281.498 138.227 281.4 138.143 281.344Z" fill="#263238"/>
<path d="M136.164 193.795C133.798 183.869 131.264 173.971 128.604 164.136C125.944 154.301 123.095 144.375 119.966 134.617C119.588 133.42 119.189 132.237 118.804 131.047C118.793 131.009 118.767 130.977 118.732 130.958C118.698 130.939 118.657 130.934 118.619 130.945C118.581 130.957 118.549 130.982 118.53 131.017C118.51 131.052 118.506 131.093 118.517 131.131C121.317 140.854 124.117 150.556 126.77 160.314C129.423 170.072 131.95 179.858 134.33 189.714C134.925 192.15 135.506 194.579 136.073 197.022C136.732 199.526 137.242 202.067 137.599 204.631C137.893 207.081 137.725 209.565 137.102 211.953C136.427 214.299 135.544 216.581 134.463 218.771C130.175 228.081 125.888 237.393 121.604 246.708C117.32 256.046 116.627 258.174 112.504 267.589C111.993 268.758 111.482 269.927 110.992 271.089C110.992 271.166 111.069 271.236 111.111 271.152C115.801 261.926 116.522 259.707 120.911 250.313C125.3 240.919 129.661 231.413 134.015 221.956C135.975 217.686 138.278 213.332 138.572 208.558C138.866 203.574 137.298 198.576 136.164 193.795Z" fill="#263238"/>
<path d="M137.785 271.033L138.933 303.933C139.122 310.233 139.395 315.742 139.808 318.577C139.805 318.593 139.805 318.609 139.808 318.626C139.832 319.298 140.009 319.957 140.326 320.551L140.368 320.593C142.279 321.804 192.602 321.776 194.359 321.181C196.116 320.586 194.562 315.546 192.609 313.985C190.656 312.424 171.378 303.821 171.378 303.821L169.915 270.956L137.785 271.033Z" fill="#D3766A"/>
<path d="M138.695 297.199C138.695 297.199 138.933 303.933 138.933 303.954C139.122 310.254 139.395 315.763 139.808 318.598C139.805 318.614 139.805 318.631 139.808 318.647C139.904 319.307 140.078 319.953 140.326 320.572L140.368 320.614C142.279 321.825 192.602 321.797 194.359 321.202C196.116 320.607 194.562 315.567 192.609 314.006C190.656 312.445 171.378 303.842 171.378 303.842L171.231 296.989L138.695 297.199Z" fill="#343F4A"/>
<path d="M194.387 321.146C192.609 321.713 141.887 320.929 139.969 319.669C139.269 319.2 138.919 311.808 138.793 302.869V302.589L171.525 302.729V303.289C171.525 303.289 190.81 312.27 192.763 313.873C194.716 315.476 196.172 320.6 194.387 321.146Z" fill="#263238"/>
<path d="M193.848 319.2C185.301 318.857 150.791 318.283 142.314 318.598C142.244 318.598 142.244 318.647 142.314 318.647C150.777 319.172 185.294 319.473 193.848 319.347C194.023 319.305 194.03 319.2 193.848 319.2Z" fill="white"/>
<path d="M174.257 303.415C170.904 302.715 166.774 303.184 164.17 305.515C164.065 305.606 164.17 305.746 164.31 305.718C167.541 304.731 170.869 304.091 174.236 303.807C174.276 303.794 174.312 303.769 174.338 303.735C174.364 303.701 174.379 303.66 174.381 303.618C174.384 303.575 174.373 303.533 174.351 303.497C174.328 303.46 174.296 303.432 174.257 303.415Z" fill="url(#paint17_linear_355_4688)"/>
<path d="M176.665 304.913C173.305 304.213 169.182 304.689 166.578 307.048C166.473 307.139 166.578 307.279 166.711 307.244C169.945 306.256 173.275 305.618 176.644 305.34C176.695 305.333 176.741 305.309 176.776 305.272C176.811 305.235 176.831 305.186 176.834 305.135C176.836 305.084 176.821 305.034 176.79 304.993C176.759 304.952 176.715 304.924 176.665 304.913Z" fill="url(#paint18_linear_355_4688)"/>
<path d="M179.064 306.418C175.711 305.718 171.588 306.187 168.977 308.518C168.879 308.609 168.977 308.749 169.117 308.721C172.349 307.735 175.676 307.095 179.043 306.81C179.084 306.797 179.119 306.772 179.145 306.738C179.171 306.705 179.186 306.664 179.189 306.621C179.191 306.579 179.18 306.537 179.158 306.5C179.136 306.464 179.103 306.435 179.064 306.418Z" fill="url(#paint19_linear_355_4688)"/>
<path d="M195.194 319.34C196.097 319.704 195.852 322.749 195.194 322.98C194.536 323.211 139.194 322.112 138.291 321.888C137.388 321.664 137.752 318.297 138.851 318.136C139.95 317.975 195.194 319.34 195.194 319.34Z" fill="#787878"/>
<path d="M147.082 308.385C143.435 306.488 140.481 312.158 144.135 314.055C147.789 315.952 150.736 310.282 147.082 308.385Z" fill="url(#paint20_linear_355_4688)"/>
<path d="M143.058 126.7C142.925 127.309 135.512 156.618 134.588 157.164C133.538 157.787 161.524 195.44 164.842 213.927C166.942 225.75 171.842 294.665 171.842 294.665H136.156C136.156 294.665 132.656 236.138 131.494 216.853C131.039 209.37 102.969 174.776 100.302 151.711C99.4624 144.445 104.684 126.672 104.684 126.672L143.058 126.7Z" fill="#343F4A"/>
<path d="M135.253 266.819C134.833 257.124 134.448 247.408 133.741 237.727C133.342 232.239 132.558 226.926 132.012 221.459C132.012 221.172 131.753 221.102 131.76 221.396C132.012 231.133 132.817 240.765 133.335 250.495C133.853 260.225 134.35 262.493 134.903 272.195C135.211 277.683 135.484 283.171 135.911 288.652C135.916 288.666 135.924 288.678 135.936 288.687C135.948 288.695 135.963 288.7 135.977 288.7C135.992 288.7 136.007 288.695 136.018 288.687C136.03 288.678 136.039 288.666 136.044 288.652C136.065 278.908 135.68 276.549 135.253 266.819Z" fill="#263238"/>
<path d="M164.877 214.389C164.572 211.828 164.076 209.294 163.393 206.808C162.658 204.398 161.69 202.065 160.502 199.843C158.073 195.181 155.308 190.673 152.641 186.144C149.974 181.615 147.195 176.988 144.381 172.466C142.799 169.927 141.21 167.391 139.614 164.857C137.99 162.302 136.275 159.796 134.602 157.276C134.589 157.254 134.569 157.239 134.544 157.233C134.52 157.227 134.494 157.231 134.473 157.244C134.452 157.257 134.436 157.278 134.43 157.302C134.424 157.327 134.428 157.352 134.441 157.374C137.171 161.952 139.873 166.537 142.603 171.115C145.333 175.693 148.021 180.285 150.709 184.877C153.397 189.469 156.008 193.921 158.542 198.513C159.79 200.693 160.865 202.968 161.755 205.317C162.584 207.75 163.186 210.255 163.554 212.8C164.506 218.729 165.283 224.7 166.473 230.573C166.478 230.587 166.487 230.599 166.499 230.608C166.511 230.616 166.525 230.621 166.54 230.621C166.555 230.621 166.569 230.616 166.581 230.608C166.593 230.599 166.602 230.587 166.606 230.573C166.235 225.169 165.591 219.758 164.877 214.389Z" fill="#263238"/>
<path d="M168.697 288.547C166.66 288.281 151.113 287.742 138.107 288.302C138.023 288.302 138.03 288.428 138.107 288.435C142.342 288.806 166.289 288.974 168.676 288.694C168.739 288.687 168.767 288.561 168.697 288.547Z" fill="#263238"/>
<path d="M139.242 155.162C135.606 156.486 132.093 158.126 128.742 160.062C128.713 160.075 128.691 160.099 128.68 160.128C128.668 160.158 128.669 160.19 128.682 160.219C128.695 160.248 128.719 160.27 128.749 160.282C128.778 160.293 128.811 160.292 128.84 160.279C132.382 158.753 136.001 157.297 139.459 155.582C139.515 155.553 139.557 155.503 139.576 155.443C139.595 155.384 139.589 155.319 139.56 155.263C139.532 155.207 139.482 155.165 139.422 155.146C139.362 155.127 139.298 155.133 139.242 155.162Z" fill="#263238"/>
<path d="M140.313 130.9C140.313 130.781 140.089 130.753 140.089 130.9C140.09 134.855 139.891 138.808 139.494 142.744C139.326 144.571 137.856 154.644 134.692 153.944C134.16 153.818 133.894 153.3 133.81 152.495C133.819 151.45 133.96 150.41 134.23 149.401C134.58 147.301 134.86 145.201 135.042 143.038C135.414 139.064 135.371 135.061 134.916 131.096C134.91 131.073 134.897 131.054 134.879 131.04C134.861 131.025 134.838 131.018 134.815 131.018C134.792 131.018 134.769 131.025 134.751 131.04C134.732 131.054 134.719 131.073 134.713 131.096C134.805 136.605 134.482 142.113 133.747 147.574C133.348 150.199 132.025 154.154 134.776 154.574C137.527 154.994 139.382 148.365 139.718 146.552C140.594 141.382 140.794 136.121 140.313 130.9Z" fill="#263238"/>
<path d="M134.776 154.161C134.495 154.844 134.261 155.546 134.076 156.261C133.874 156.81 133.775 157.391 133.782 157.976C133.785 158 133.796 158.022 133.812 158.04C133.828 158.057 133.85 158.07 133.873 158.075C133.897 158.08 133.921 158.078 133.944 158.069C133.966 158.06 133.985 158.045 133.999 158.025C134.329 157.509 134.577 156.944 134.734 156.352C134.979 155.701 135.231 155.064 135.434 154.406C135.466 154.318 135.463 154.222 135.424 154.137C135.385 154.053 135.314 153.987 135.227 153.954C135.14 153.922 135.043 153.925 134.959 153.964C134.874 154.003 134.808 154.073 134.776 154.161Z" fill="#263238"/>
<path d="M136.267 226.261C135.931 221.277 135.952 216.02 133.831 211.4C132.705 209.149 131.408 206.986 129.953 204.932C128.507 202.72 127.079 200.496 125.669 198.261C120.069 189.322 114.665 180.201 109.744 170.856C107.371 166.355 105.187 161.707 103.997 156.737C102.837 151.507 102.616 146.112 103.346 140.805C103.514 139.482 103.696 138.166 103.913 136.85C103.914 136.832 103.908 136.815 103.898 136.801C103.887 136.786 103.872 136.776 103.854 136.772C103.837 136.768 103.819 136.77 103.803 136.778C103.786 136.786 103.774 136.799 103.766 136.815C102.615 141.862 102.221 147.052 102.597 152.215C103.136 157.151 104.526 161.957 106.706 166.418C108.876 171.115 111.459 175.637 114.007 180.138C116.635 184.805 119.339 189.404 122.12 193.935C124.92 198.457 127.804 202.888 130.695 207.34C132.17 209.44 133.319 211.75 134.104 214.193C134.741 216.742 135.107 219.351 135.196 221.977C135.896 232.995 138.696 269.626 139.69 280.588C139.809 281.988 139.935 283.388 140.068 284.788C140.064 284.803 140.064 284.818 140.067 284.833C140.069 284.848 140.076 284.861 140.085 284.873C140.094 284.885 140.106 284.895 140.119 284.902C140.133 284.909 140.148 284.912 140.163 284.912C140.178 284.912 140.193 284.909 140.206 284.902C140.22 284.895 140.232 284.885 140.241 284.873C140.25 284.861 140.256 284.848 140.259 284.833C140.262 284.818 140.261 284.803 140.257 284.788C139.837 273.784 136.988 237.244 136.267 226.261Z" fill="#263238"/>
<path d="M119.138 136.359C119.138 136.282 119.012 136.31 119.012 136.359C118.907 139.418 119.012 142.582 117.815 145.459C116.737 148.112 114.567 149.974 112.138 151.367C110.725 152.16 109.269 152.873 107.777 153.502C107.672 153.551 107.714 153.719 107.833 153.684C110.633 152.788 113.524 151.815 115.869 149.939C118.375 147.923 119.474 145.004 119.593 141.854C119.636 140.012 119.483 138.17 119.138 136.359Z" fill="#263238"/>
<path d="M134.672 86.4992C138.676 98.7912 149.491 119.728 153.355 122.255C156.778 124.488 172.885 121.996 179.955 120.295C182.587 119.658 176.665 99.5962 173.858 100.331C170.491 101.213 160.46 103.474 159.732 102.914C159.004 102.354 148.889 89.8942 141.721 82.5582C135.197 75.9152 133.16 81.8512 134.672 86.4992Z" fill="#D3766A"/>
<path d="M178.408 120.449C179.759 120.281 191.19 119.749 196.433 116.9C199.233 115.381 206.38 110.355 205.666 108.549C205.015 106.904 202.719 107.8 202.719 107.8C202.719 107.8 205.876 105.511 204.952 103.229C204.028 100.947 200.213 102.662 200.213 102.662C200.213 102.662 203.286 100.072 202.201 97.867C201.116 95.662 197.574 98.021 197.574 98.021C197.574 98.021 200.493 95.788 198.834 94.346C196.832 92.61 191.911 97.342 188.586 98.448C187.83 98.7 172.934 102.466 172.934 102.466L178.408 120.449Z" fill="#D3766A"/>
<path d="M197.447 97.9577C193.821 101.423 191.63 102.312 186.786 103.292C186.695 103.292 186.702 103.46 186.786 103.446C191.616 102.921 194.521 102.2 197.608 98.1257C197.776 97.9227 197.615 97.7897 197.447 97.9577Z" fill="#263238"/>
<path d="M200.093 102.578C196.012 105.854 193.646 106.834 188.648 108.234C188.578 108.234 188.606 108.381 188.683 108.367C193.695 107.401 196.579 106.617 200.226 102.809C200.394 102.641 200.282 102.431 200.093 102.578Z" fill="#263238"/>
<path d="M202.475 107.857C198.275 110.741 195.748 111.938 190.722 112.673C190.698 112.673 190.675 112.682 190.658 112.699C190.64 112.716 190.631 112.739 190.631 112.764C190.631 112.788 190.64 112.811 190.658 112.828C190.675 112.845 190.698 112.855 190.722 112.855C195.923 112.603 199.122 111.14 202.531 107.997C202.783 107.801 202.734 107.682 202.475 107.857Z" fill="#263238"/>
<path d="M169.027 103.11C169.027 103.11 173.192 98.3987 175.474 96.7327C177.756 95.0667 188.564 91.9867 189.362 94.2827C190.391 97.2507 184.504 100.254 181.431 101.346C181.431 101.346 183.818 108.206 180.031 111.272C176.244 114.338 169.027 103.11 169.027 103.11Z" fill="#D3766A"/>
<path d="M189.384 95.1997C188.369 98.5807 184.239 99.7567 181.334 101.038C181.291 101.056 181.253 101.085 181.223 101.12C181.192 101.156 181.171 101.199 181.16 101.244C181.149 101.29 181.149 101.337 181.16 101.383C181.171 101.428 181.192 101.471 181.222 101.507C182.034 104.447 182.314 108.829 180.256 111.307C180.2 111.377 180.291 111.475 180.361 111.412C182.93 109.06 183 104.727 181.908 101.563C184.911 100.296 188.999 98.9307 189.412 95.2137C189.419 95.1997 189.391 95.1997 189.384 95.1997Z" fill="#263238"/>
<path d="M178.402 123.9L173.124 99.8624L160.062 102.235C154.91 96.3344 144.613 84.5394 140.462 80.9974C135.562 76.8394 132.356 79.9614 134.162 86.2614C138.243 100.66 150.178 121.8 153.3 123.795C157.829 126.7 178.402 123.9 178.402 123.9Z" fill="#263238"/>
<path opacity="0.1" d="M159.755 109.55C160.401 109.691 161.06 109.768 161.722 109.781C163.122 109.97 163.738 112.035 162.464 112.819C161.795 113.231 161.038 113.481 160.255 113.548C159.472 113.615 158.685 113.497 157.956 113.204C156.556 112.658 155.373 111.3 155.674 109.704C155.726 109.407 155.854 109.128 156.046 108.895C156.238 108.661 156.487 108.482 156.769 108.373C157.05 108.265 157.356 108.231 157.654 108.275C157.953 108.32 158.235 108.441 158.474 108.626C158.861 108.985 159.292 109.295 159.755 109.55ZM156.143 103.831C155.639 106.211 159.321 108.255 161.204 106.988C161.355 106.873 161.479 106.726 161.566 106.556C161.653 106.387 161.701 106.2 161.705 106.01C161.71 105.819 161.672 105.63 161.593 105.457C161.515 105.283 161.398 105.13 161.253 105.007C160.7 104.559 160.238 104.489 159.748 104.083C159.576 103.95 159.425 103.792 159.3 103.614C159.022 103.232 158.666 102.912 158.257 102.676C158.043 102.585 157.812 102.544 157.58 102.555C157.349 102.566 157.123 102.63 156.919 102.741C156.716 102.852 156.54 103.008 156.406 103.197C156.271 103.386 156.181 103.603 156.143 103.831ZM150.27 103.957C149.514 104.944 150.081 106.428 150.746 107.324C151.045 107.771 151.457 108.129 151.941 108.364C152.424 108.599 152.961 108.702 153.497 108.661C153.692 108.634 153.875 108.55 154.024 108.421C154.173 108.292 154.281 108.122 154.336 107.933C154.391 107.744 154.39 107.542 154.332 107.354C154.275 107.165 154.165 106.997 154.015 106.869C153.594 106.549 153.257 106.131 153.035 105.651C152.706 104.909 152.489 103.95 151.635 103.628C151.401 103.532 151.144 103.513 150.899 103.572C150.654 103.631 150.433 103.766 150.27 103.957ZM165.775 119.525C164.788 121.52 167.791 123.788 169.611 123.396C170.22 123.263 170.808 122.465 170.269 121.891C169.835 121.429 169.317 121.065 168.911 120.575C168.414 119.98 168.141 119.217 167.364 118.916C167.071 118.794 166.743 118.789 166.447 118.902C166.151 119.016 165.91 119.239 165.775 119.525ZM137.579 95.0603C137.406 94.7326 137.168 94.4441 136.879 94.2133C137.271 95.2166 137.684 96.2223 138.118 97.2303C138.141 96.4712 137.954 95.7203 137.579 95.0603ZM141.478 92.9603C141.341 91.2311 140.665 89.5884 139.546 88.2633C138.706 87.1783 137.25 85.4633 135.71 85.8343C135.546 85.8854 135.403 85.9879 135.302 86.1266C135.201 86.2653 135.148 86.4328 135.15 86.6043C135.052 87.7873 136.41 89.0543 136.998 89.9993C137.698 91.1893 138.251 92.5053 139.007 93.6883C139.165 93.9315 139.397 94.1171 139.669 94.2173C139.941 94.3175 140.239 94.327 140.517 94.2443C140.795 94.1616 141.039 93.9912 141.212 93.7585C141.385 93.5258 141.478 93.2433 141.478 92.9533V92.9603ZM141.023 100.485C141.296 100.471 141.558 100.37 141.77 100.196C141.981 100.022 142.132 99.7849 142.199 99.5193C142.307 98.9758 142.271 98.4133 142.094 97.8883C141.989 97.3883 141.746 96.9276 141.394 96.5583C141.267 96.4414 141.113 96.3593 140.945 96.3201C140.777 96.2808 140.602 96.2858 140.437 96.3345C140.272 96.3832 140.123 96.4739 140.003 96.5978C139.884 96.7217 139.798 96.8745 139.756 97.0413C139.7 97.4501 139.7 97.8645 139.756 98.2733C139.756 98.4483 139.756 98.6233 139.756 98.8053C139.752 99.0691 139.78 99.3323 139.84 99.5893C139.915 99.845 140.071 100.07 140.284 100.23C140.497 100.39 140.756 100.477 141.023 100.478V100.485Z" fill="#030402"/>
<path d="M173.831 121.8C173.229 120.4 171.731 114.184 171.402 112.637C171.073 111.09 169.855 104.832 169.498 103.243C169.498 103.152 169.596 103.103 169.617 103.187C169.995 104.755 171.682 110.929 172.053 112.469C172.424 114.009 173.817 120.218 173.915 121.779C173.916 121.785 173.917 121.791 173.916 121.796C173.915 121.802 173.913 121.807 173.91 121.812C173.904 121.822 173.895 121.829 173.884 121.832C173.872 121.835 173.861 121.833 173.851 121.827C173.841 121.821 173.834 121.811 173.831 121.8Z" fill="#263238"/>
<path opacity="0.1" d="M161.699 125.104C158.024 125.104 154.797 124.754 153.299 123.795C150.156 121.765 138.221 100.695 134.112 86.2681C133.076 82.6561 133.699 80.0801 135.337 79.3311L161.699 125.104Z" fill="black"/>
<path d="M102.464 129.997C102.555 130.13 146.235 135.73 146.704 135.324C146.951 134.108 147.126 132.879 147.229 131.642C147.229 131.642 143.225 84.084 141.153 81.291C139.34 78.855 133.838 77.091 130.093 78.68C122.232 82.012 103.409 124.502 103.612 126.28C103.598 126.259 102.352 129.829 102.464 129.997Z" fill="#263238"/>
<path opacity="0.1" d="M118.214 124.208C118.888 124.535 119.591 124.797 120.314 124.992C121.77 125.573 121.903 128.002 120.314 128.492C119.469 128.76 118.574 128.827 117.699 128.687C116.823 128.547 115.993 128.205 115.274 127.687C113.874 126.707 112.971 124.887 113.727 123.263C113.866 122.954 114.082 122.686 114.354 122.484C114.626 122.283 114.946 122.155 115.282 122.113C115.618 122.07 115.959 122.115 116.273 122.243C116.587 122.371 116.862 122.578 117.073 122.843C117.465 123.298 117.703 123.9 118.214 124.208ZM115.82 116.977C114.623 119.448 118.088 122.675 120.489 121.8C120.69 121.719 120.87 121.593 121.014 121.432C121.158 121.27 121.263 121.077 121.32 120.868C121.377 120.659 121.385 120.44 121.342 120.227C121.3 120.015 121.209 119.815 121.077 119.644C120.601 119.007 120.111 118.804 119.677 118.244C119.527 118.05 119.407 117.836 119.32 117.607C119.113 117.118 118.811 116.675 118.431 116.305C117.598 115.5 116.261 116.067 115.82 116.977ZM111.774 114.345C110.465 114.835 110.129 116.599 110.227 117.845C110.247 118.45 110.427 119.039 110.75 119.552C111.072 120.065 111.524 120.483 112.061 120.764C112.263 120.854 112.488 120.884 112.707 120.85C112.926 120.815 113.131 120.718 113.296 120.57C113.461 120.422 113.579 120.229 113.637 120.015C113.695 119.801 113.69 119.575 113.622 119.364C113.4 118.804 113.323 118.197 113.398 117.6C113.517 116.704 113.874 115.654 113.279 114.849C113.113 114.617 112.879 114.443 112.608 114.352C112.338 114.262 112.046 114.259 111.774 114.345ZM126.124 122.675C125.793 122.646 125.463 122.746 125.203 122.953C124.942 123.16 124.771 123.459 124.724 123.788C124.688 124.141 124.777 124.497 124.975 124.792C125.173 125.087 125.468 125.304 125.809 125.405C126.286 125.562 126.802 125.562 127.279 125.405C127.523 125.308 127.725 125.127 127.846 124.894C127.986 124.668 128.043 124.401 128.007 124.138C127.968 123.892 127.856 123.664 127.684 123.484C127.513 123.304 127.291 123.181 127.048 123.13C127.004 123.072 126.952 123.02 126.894 122.976C126.672 122.803 126.404 122.699 126.124 122.675ZM115.393 105.784C114.217 106.988 114.693 109.725 116.037 110.649C116.21 110.78 116.414 110.864 116.63 110.892C116.846 110.92 117.065 110.892 117.266 110.809C117.467 110.726 117.642 110.592 117.776 110.42C117.909 110.249 117.995 110.045 118.025 109.83C118.046 109.552 118.046 109.274 118.025 108.997C118.025 108.696 117.983 108.507 118.025 108.297C118.13 107.698 118.151 107.088 118.088 106.484C118.034 106.197 117.899 105.932 117.7 105.719C117.5 105.506 117.244 105.354 116.962 105.28C116.68 105.207 116.382 105.215 116.105 105.305C115.827 105.394 115.58 105.56 115.393 105.784ZM107.798 123.2C106.181 125.118 108.848 128.408 110.941 128.471C111.641 128.471 112.502 127.771 112.068 127.001C111.718 126.385 111.249 125.839 110.941 125.202C110.563 124.418 110.472 123.501 109.702 122.969C109.415 122.758 109.058 122.664 108.704 122.707C108.35 122.75 108.026 122.926 107.798 123.2ZM146.417 122.591C146.153 122.63 145.908 122.747 145.711 122.927C145.514 123.106 145.375 123.34 145.311 123.599C145.087 124.376 145.059 125.069 144.478 125.699C143.849 126.193 143.285 126.765 142.798 127.4C142.717 127.558 142.678 127.735 142.686 127.913C142.693 128.091 142.747 128.264 142.842 128.415C142.936 128.566 143.068 128.69 143.225 128.775C143.382 128.859 143.558 128.902 143.736 128.898C144.958 128.748 146.077 128.137 146.865 127.19C146.725 125.86 146.585 124.299 146.424 122.563L146.417 122.591ZM142.917 116.816C142.525 117.768 142.595 118.846 142.266 119.84C141.977 120.751 141.634 121.644 141.237 122.514C140.943 123.144 141.531 124.138 142.294 123.802C143.535 123.325 144.55 122.398 145.136 121.205C145.668 120.106 146.256 118.258 145.745 117.089C145.234 115.92 143.498 115.409 142.903 116.788L142.917 116.816ZM138.927 126.357C138.345 127.108 137.601 127.719 136.75 128.142C136.547 128.205 136.36 128.31 136.201 128.451C136.042 128.591 135.915 128.764 135.828 128.958C135.741 129.152 135.696 129.362 135.696 129.574C135.696 129.786 135.742 129.996 135.829 130.19C135.917 130.383 136.044 130.556 136.203 130.696C136.363 130.837 136.55 130.942 136.753 131.004C136.956 131.067 137.17 131.085 137.38 131.059C137.591 131.032 137.794 130.961 137.975 130.851C138.699 130.54 139.347 130.075 139.872 129.487C140.396 128.899 140.786 128.203 141.013 127.449C141.342 126.238 139.704 125.447 138.913 126.329L138.927 126.357ZM132.529 92.0568C132.92 92.1395 133.328 92.0677 133.667 91.8563C134.007 91.6449 134.251 91.3103 134.349 90.9228C134.741 89.4178 133.397 87.8708 132.333 86.9328C131.269 85.9948 129.771 85.1408 128.28 85.6238C128.081 85.6881 127.903 85.8021 127.761 85.9548C127.618 86.1076 127.518 86.2942 127.468 86.4968C127.418 86.6995 127.421 86.9115 127.476 87.1127C127.531 87.3139 127.637 87.4978 127.783 87.6468C128.434 88.4588 129.337 89.0468 130.03 89.8448C130.723 90.6428 131.297 91.8258 132.515 92.0288L132.529 92.0568ZM137.898 97.9998C138.486 97.1528 138.031 95.8998 137.611 95.0948C137.387 94.6507 137.04 94.2811 136.61 94.0308C136.321 93.8458 135.97 93.7824 135.635 93.8545C135.299 93.9266 135.006 94.1283 134.818 94.4158C134.627 94.8138 134.597 95.2701 134.734 95.6898C134.792 95.9093 134.872 96.1227 134.972 96.3268V96.3898V96.4458C135.097 97.1142 135.38 97.7431 135.798 98.2798C135.943 98.4253 136.119 98.5355 136.313 98.6016C136.507 98.6677 136.714 98.688 136.917 98.6609C137.121 98.6338 137.315 98.56 137.485 98.4453C137.655 98.3306 137.797 98.1781 137.898 97.9998ZM141.51 92.9878C141.373 91.2586 140.697 89.6159 139.578 88.2908C138.738 87.2058 137.282 85.4908 135.742 85.8618C135.578 85.9129 135.435 86.0154 135.335 86.1541C135.234 86.2928 135.18 86.4603 135.182 86.6318C135.084 87.8148 136.442 89.0818 137.03 90.0268C137.73 91.2168 138.283 92.5328 139.039 93.7158C139.204 93.9456 139.437 94.1175 139.705 94.2072C139.973 94.2968 140.263 94.2996 140.533 94.215C140.803 94.1305 141.039 93.963 141.208 93.7364C141.377 93.5097 141.471 93.2355 141.475 92.9528L141.51 92.9878ZM136.225 104.972C136.481 105.028 136.746 105.028 137.002 104.972C137.39 104.852 137.718 104.589 137.919 104.237C138.107 103.861 138.201 103.446 138.192 103.026C138.179 102.628 138.071 102.239 137.877 101.892L137.646 101.605L137.338 101.381C137.145 101.281 136.933 101.227 136.716 101.221C136.499 101.215 136.284 101.258 136.086 101.347C135.889 101.436 135.713 101.568 135.574 101.734C135.434 101.9 135.334 102.095 135.28 102.305C135.163 102.712 135.081 103.129 135.035 103.551L135.098 103.936C135.147 104.129 135.243 104.307 135.378 104.454C135.589 104.698 135.874 104.868 136.19 104.937L136.225 104.972ZM141.055 100.513C141.328 100.499 141.59 100.397 141.802 100.223C142.014 100.049 142.164 99.8124 142.231 99.5468C142.34 99.0033 142.303 98.4408 142.126 97.9158C142.021 97.4158 141.779 96.9551 141.426 96.5858C141.3 96.4688 141.145 96.3867 140.977 96.3475C140.81 96.3083 140.635 96.3133 140.47 96.3619C140.305 96.4106 140.155 96.5014 140.035 96.6253C139.916 96.7492 139.831 96.902 139.788 97.0688C139.732 97.4775 139.732 97.892 139.788 98.3008C139.788 98.4758 139.788 98.6508 139.788 98.8328C139.784 99.0965 139.813 99.3597 139.872 99.6168C139.95 99.8617 140.103 100.076 140.309 100.23C140.514 100.385 140.763 100.471 141.02 100.478L141.055 100.513Z" fill="#030402"/>
<path d="M138.598 88.746C135.931 88.501 132.515 82.803 131.864 79.184C131.822 78.932 132.886 76.825 134.055 74.207C134.755 72.618 135.511 70.826 136.071 69.146L145.759 75.243C144.452 77.1448 143.383 79.1994 142.574 81.361C142.502 81.5892 142.451 81.8235 142.42 82.061C142.423 82.1006 142.423 82.1404 142.42 82.18C142.175 83.58 141.181 88.984 138.598 88.746Z" fill="#D3766A"/>
<path d="M142.421 82.0751C142.423 82.1147 142.423 82.1544 142.421 82.1941C142.048 82.121 141.68 82.0204 141.322 81.8931C135.26 79.7091 136.331 71.7571 136.758 69.5591L139.173 71.0851L145.788 75.2851C144.481 77.1861 143.414 79.2409 142.61 81.4031C142.527 81.6209 142.463 81.8458 142.421 82.0751Z" fill="#263238"/>
<path d="M137.086 57.9248C135.084 61.5298 134.734 73.1078 136.953 76.1808C140.159 80.6328 146.599 82.3688 150.68 78.2808C154.635 74.2768 154.817 59.1778 152.241 56.2658C148.433 51.9398 140.04 52.5978 137.086 57.9248Z" fill="#D3766A"/>
<path d="M146.382 67.2837C146.382 67.2837 146.319 67.2837 146.319 67.3537C146.319 68.1517 146.179 69.0617 145.451 69.2997V69.3487C146.34 69.2507 146.508 68.0397 146.382 67.2837Z" fill="#263238"/>
<path d="M145.705 66.4303C144.424 66.2903 144.235 68.8523 145.418 68.9853C146.601 69.1183 146.776 66.5493 145.705 66.4303Z" fill="#263238"/>
<path d="M150.976 67.5566C150.976 67.5566 151.032 67.5986 151.032 67.6336C150.941 68.4246 150.976 69.3486 151.669 69.6636C151.669 69.6636 151.669 69.7196 151.669 69.7126C150.794 69.5166 150.766 68.2916 150.976 67.5566Z" fill="#263238"/>
<path d="M151.752 66.7866C153.033 66.7866 152.928 69.3556 151.752 69.3556C150.576 69.3556 150.674 66.7796 151.752 66.7866Z" fill="#263238"/>
<path d="M146.739 65.912C146.382 65.989 146.039 65.9959 145.689 66.0379C145.326 66.1328 144.943 66.1057 144.597 65.961C144.496 65.8946 144.421 65.7968 144.381 65.6829C144.342 65.5689 144.342 65.4452 144.38 65.3309C144.495 65.1222 144.663 64.9475 144.867 64.8245C145.071 64.7016 145.304 64.6348 145.542 64.6309C146.026 64.538 146.526 64.6331 146.942 64.8969C147.029 64.962 147.095 65.0501 147.133 65.1512C147.172 65.2523 147.181 65.3622 147.16 65.4683C147.139 65.5744 147.088 65.6724 147.014 65.7509C146.939 65.8294 146.844 65.8852 146.739 65.912Z" fill="#263238"/>
<path d="M152.9 64.4002C152.56 64.3048 152.226 64.1903 151.899 64.0572C151.531 63.9877 151.196 63.7982 150.947 63.5182C150.885 63.4156 150.859 63.2951 150.873 63.1759C150.887 63.0567 150.94 62.9456 151.024 62.8602C151.216 62.714 151.443 62.6225 151.682 62.5954C151.921 62.5683 152.163 62.6065 152.382 62.7062C152.855 62.8356 153.264 63.1346 153.53 63.5462C153.586 63.6438 153.612 63.7554 153.605 63.8675C153.598 63.9795 153.559 64.0872 153.492 64.1776C153.426 64.2679 153.334 64.337 153.229 64.3765C153.124 64.416 153.01 64.4242 152.9 64.4002Z" fill="#263238"/>
<path d="M145.803 73.5977C146.834 73.3509 147.908 73.3509 148.939 73.5977C149.03 73.5977 149.121 73.4157 149.142 73.3317L149.198 71.6517C149.415 71.7777 150.507 72.3517 150.507 72.0437C150.621 69.3132 150.454 66.5782 150.01 63.8817C150.005 63.866 149.995 63.8523 149.982 63.8426C149.969 63.8329 149.953 63.8276 149.937 63.8276C149.92 63.8276 149.904 63.8329 149.891 63.8426C149.878 63.8523 149.868 63.866 149.863 63.8817C149.751 66.4087 150.073 68.9287 149.996 71.4697C149.61 71.2556 149.195 71.0977 148.764 71.0007C148.673 71.0007 148.764 72.7857 148.764 73.0517C147.801 72.7198 146.746 72.7776 145.824 73.2127C145.46 73.4437 145.313 73.7517 145.803 73.5977Z" fill="#263238"/>
<path d="M143.73 75.2638C143.905 75.4598 144.08 75.7258 144.36 75.7678C144.654 75.7819 144.948 75.7317 145.221 75.6208C145.221 75.6208 145.27 75.6208 145.221 75.6628C145.1 75.8114 144.941 75.9239 144.761 75.9881C144.581 76.0523 144.386 76.0657 144.199 76.0268C144.046 75.9779 143.91 75.8858 143.809 75.7616C143.707 75.6374 143.643 75.4864 143.625 75.3268C143.639 75.2498 143.702 75.2358 143.73 75.2638Z" fill="#263238"/>
<path opacity="0.2" d="M140.467 54.25C140.362 56.049 139.935 61.628 139.067 62.762C138.199 63.896 136.365 66.535 135.434 66.962C135.56 63.245 136.134 59.71 137.093 57.862C137.879 56.3814 139.043 55.1352 140.467 54.25Z" fill="#263238"/>
<path d="M150.442 59.7032C149.953 60.2014 149.344 60.5659 148.674 60.762C148.003 60.9581 147.294 60.9791 146.613 60.8232C145.917 60.6682 145.272 60.3362 144.741 59.8592C144.21 59.3822 143.811 58.7764 143.582 58.1002C143.582 58.0582 143.505 58.1002 143.519 58.1002C143.697 58.8302 144.072 59.4975 144.603 60.0294C145.133 60.5614 145.8 60.9376 146.529 61.1172C147.258 61.2562 148.01 61.1999 148.709 60.954C149.409 60.7081 150.031 60.2814 150.512 59.7172C150.554 59.7242 150.498 59.6612 150.442 59.7032Z" fill="#263238"/>
<path d="M146.93 49.3286C145.854 49.2558 144.777 49.4549 143.798 49.9076C142.82 50.3602 141.971 51.0518 141.33 51.9186C140.783 52.8009 140.551 53.8419 140.672 54.8726H140.763C140.776 53.9682 141.033 53.0842 141.508 52.3141C141.982 51.544 142.656 50.9163 143.458 50.4976C144.334 50.007 145.312 49.7258 146.315 49.676C147.318 49.6263 148.319 49.8092 149.24 50.2106C150.145 50.584 150.889 51.2659 151.34 52.1356C151.382 52.2266 151.564 52.1846 151.529 52.0936C150.955 50.5676 149.1 49.4336 146.93 49.3286Z" fill="#263238"/>
<path d="M160.298 55.4331C159.994 54.248 159.28 53.209 158.282 52.5001C156.882 51.4991 155.244 51.5131 153.606 51.5691C153.557 51.5691 153.564 51.6391 153.606 51.6321C154.999 51.4867 156.404 51.7468 157.652 52.3811C158.668 52.9909 159.442 53.9331 159.843 55.0481C160.225 56.1918 160.181 57.4347 159.719 58.5484C159.257 59.6621 158.409 60.5718 157.33 61.1101C156.702 61.4052 156.021 61.5686 155.327 61.5903C154.634 61.612 153.943 61.4914 153.298 61.2361C153.249 61.2361 153.207 61.2851 153.256 61.3131C154.129 61.6987 155.092 61.8325 156.037 61.6994C156.982 61.5664 157.871 61.1718 158.603 60.5602C159.336 59.9486 159.883 59.1444 160.182 58.2384C160.482 57.3324 160.522 56.3607 160.298 55.4331Z" fill="#263238"/>
<path d="M136.387 60.1998C136.387 60.1998 134.455 55.7968 136.52 53.4868C137.689 52.1848 141.203 52.6328 141.203 52.6328C142.253 51.3003 143.789 50.4392 145.473 50.2388C148.476 49.7698 151.899 51.7998 151.899 51.7998C151.899 51.7998 154.825 50.3998 157.338 52.1008C160.838 54.4738 159.963 60.0248 156.141 61.5368C153.453 62.6078 150.107 60.0458 150.107 60.0458C149.771 60.0458 146.145 61.8938 143.758 58.6038C143.758 58.6038 141.49 60.3328 139.677 58.8628C139.332 59.3965 138.832 59.8111 138.243 60.0503C137.654 60.2895 137.006 60.3417 136.387 60.1998Z" fill="#263238"/>
<path d="M137.527 67.5147C137.527 67.5147 135.693 63.4057 133.88 64.0147C132.067 64.6237 132.949 70.2097 134.741 71.3017C134.96 71.4536 135.206 71.5601 135.467 71.6149C135.727 71.6697 135.996 71.6717 136.257 71.6208C136.518 71.5699 136.766 71.4671 136.987 71.3185C137.207 71.1699 137.396 70.9785 137.541 70.7557L137.527 67.5147Z" fill="#D3766A"/>
<path d="M134.176 65.5967V65.6457C135.422 66.4507 135.891 67.8437 136.136 69.2367C136.083 69.0866 135.998 68.9497 135.888 68.8355C135.777 68.7213 135.643 68.6325 135.494 68.5753C135.346 68.5181 135.187 68.4937 135.028 68.504C134.869 68.5142 134.715 68.5588 134.575 68.6347C134.533 68.6347 134.575 68.7117 134.575 68.7117C134.83 68.6822 135.087 68.734 135.311 68.8597C135.535 68.9854 135.713 69.1786 135.821 69.4117C136.011 69.7903 136.156 70.1896 136.255 70.6017C136.255 70.7347 136.521 70.7137 136.507 70.6017C136.864 68.7957 135.989 66.1287 134.176 65.5967Z" fill="#263238"/>
<path d="M234.553 75.6702L159.189 98.7544L172.778 143.116L248.141 120.032L234.553 75.6702Z" fill="#787878"/>
<path opacity="0.2" d="M234.553 75.6702L159.189 98.7544L172.778 143.116L248.141 120.032L234.553 75.6702Z" fill="black"/>
<path opacity="0.2" d="M234.549 75.6706L209.223 83.4282L222.811 127.79L248.137 120.032L234.549 75.6706Z" fill="black"/>
<path d="M233.337 77.9307C232.483 81.86 231.652 85.7893 230.845 89.7187L228.458 101.535L226.148 113.4C225.392 117.348 224.654 121.303 223.936 125.265C224.79 121.34 225.62 117.411 226.428 113.477L228.815 101.661L231.125 89.8237C231.881 85.857 232.618 81.8927 233.337 77.9307Z" fill="#787878"/>
<path d="M245.775 118.545C242.975 115.671 240.149 112.808 237.298 109.956L228.758 101.444L220.162 92.9952C217.287 90.1952 214.399 87.3952 211.496 84.5952C214.296 87.4745 217.122 90.3375 219.973 93.1842L228.513 101.696L237.109 110.145C239.988 112.973 242.877 115.773 245.775 118.545Z" fill="#787878"/>
<path d="M173.663 104.471L174.078 104.344L172.292 98.5146L171.878 98.6417L173.663 104.471Z" fill="#263238"/>
<path d="M172.679 104.768L173.094 104.641L171.308 98.811L170.893 98.9381L172.679 104.768Z" fill="#263238"/>
<path d="M171.683 105.085L172.098 104.958L170.312 99.1279L169.897 99.255L171.683 105.085Z" fill="#263238"/>
<path d="M170.698 105.37L171.113 105.243L169.329 99.4132L168.914 99.5402L170.698 105.37Z" fill="#263238"/>
<path d="M169.704 105.679L170.119 105.552L168.333 99.7226L167.919 99.8497L169.704 105.679Z" fill="#263238"/>
<path d="M168.718 105.975L169.133 105.848L167.347 100.018L166.932 100.146L168.718 105.975Z" fill="#263238"/>
<path d="M167.718 106.301L168.133 106.174L166.347 100.345L165.932 100.472L167.718 106.301Z" fill="#263238"/>
<path d="M166.73 106.596L167.145 106.469L165.358 100.639L164.943 100.767L166.73 106.596Z" fill="#263238"/>
<path d="M165.732 106.91L166.146 106.783L164.361 100.953L163.946 101.08L165.732 106.91Z" fill="#263238"/>
<path d="M176.49 97.7131L174.768 97.7551L178.499 96.6001L177.043 97.5381L177.701 99.6801C178.884 99.4771 179.682 100.464 180.284 102.424L176.553 103.6C175.951 101.647 176.056 100.38 177.148 99.8831L176.49 97.7131Z" fill="#263238"/>
<path d="M180.24 99.2042L181.213 98.9032L180.338 96.0472L182.83 95.2842L183.705 98.1402L184.685 97.8392L183.369 101.493L180.24 99.2042Z" fill="#263238"/>
<path opacity="0.1" d="M159.193 98.7566L160.306 102.397L212.4 93.8006L209.222 83.4336L159.193 98.7566Z" fill="black"/>
<path d="M257.907 125.062L232.574 132.818L222.809 127.792L248.142 120.029L257.907 125.062Z" fill="#787878"/>
<path opacity="0.2" d="M257.907 125.062L232.574 132.818L222.809 127.792L248.142 120.029L257.907 125.062Z" fill="black"/>
<path d="M167.502 152.754L192.835 144.991L198.106 135.359L172.773 143.115L167.502 152.754Z" fill="#787878"/>
<path opacity="0.1" d="M167.502 152.754L192.835 144.991L198.106 135.359L172.773 143.115L167.502 152.754Z" fill="black"/>
<path d="M125.811 91.9102C129.514 104.293 139.811 125.51 143.633 128.1C147 130.417 163.163 128.31 170.233 126.777C172.879 126.21 167.433 106.008 164.633 106.673C161.245 107.478 151.158 109.473 150.444 108.92C149.73 108.367 139.944 95.6202 132.944 88.1442C126.588 81.3402 124.411 87.2272 125.811 91.9102Z" fill="#D3766A"/>
<path d="M163.176 108.318C163.176 108.318 168.531 102.284 172.325 99.9813C176.33 97.689 180.831 96.4038 185.443 96.2363C190.42 96.0403 202.593 98.9943 202.348 102.648C202.131 105.959 189.846 102.305 189.846 102.305C189.846 102.305 202.985 103.964 201.991 107.905C200.997 111.846 186.976 106.785 186.976 106.785C186.976 106.785 200.437 108.787 198.799 112.7C197.539 115.647 184.582 111.783 184.582 111.783C184.582 111.783 196.146 113.589 194.977 116.683C193.689 120.092 181.502 117.278 181.502 117.278C177.225 124.614 172.178 126.378 168.447 127.169C167.516 127.33 163.176 108.318 163.176 108.318Z" fill="#D3766A"/>
<path d="M185.338 101.437C186.885 101.577 188.46 101.71 189.993 101.983C191.526 102.256 193.045 102.592 194.55 103.012C196.522 103.518 198.429 104.249 200.234 105.189C196.909 103.754 191.435 102.676 189.902 102.389C188.369 102.102 186.85 101.759 185.324 101.486C185.282 101.5 185.296 101.437 185.338 101.437Z" fill="#263238"/>
<path d="M184.238 106.96C186.205 107.219 188.179 107.408 190.139 107.758C192.099 108.108 193.912 108.612 195.837 109.095C195.984 109.13 195.914 109.2 195.767 109.165C193.821 108.759 192.001 108.535 190.055 108.157C188.109 107.779 186.177 107.317 184.224 107.002C184.196 107.002 184.203 106.953 184.238 106.96Z" fill="#263238"/>
<path d="M182.439 111.524C185.474 111.853 188.468 112.496 191.371 113.442C191.518 113.484 191.42 113.561 191.266 113.526C188.312 112.826 185.995 112.266 182.432 111.629C182.376 111.622 182.376 111.517 182.439 111.524Z" fill="#263238"/>
<path d="M168.629 130.361L163.925 106.197L150.814 108.255C145.802 102.235 135.792 90.1949 131.704 86.5549C126.909 82.2779 123.626 85.3299 125.271 91.6649C129.037 106.148 140.461 127.54 143.555 129.64C147.993 132.65 168.629 130.361 168.629 130.361Z" fill="#263238"/>
<path opacity="0.1" d="M159.753 109.55C160.399 109.691 161.058 109.768 161.72 109.781C163.12 109.97 163.736 112.035 162.462 112.819C161.793 113.231 161.036 113.481 160.254 113.547C159.471 113.614 158.683 113.497 157.954 113.204C156.554 112.658 155.371 111.3 155.672 109.704C155.724 109.406 155.852 109.127 156.044 108.894C156.236 108.661 156.485 108.481 156.767 108.373C157.049 108.264 157.354 108.23 157.653 108.275C157.951 108.319 158.234 108.44 158.472 108.626C158.86 108.985 159.29 109.295 159.753 109.55ZM158.353 107.072C158.792 107.284 159.276 107.387 159.763 107.372C160.25 107.357 160.727 107.226 161.153 106.988C161.31 106.883 161.435 106.738 161.517 106.568L158.353 107.072ZM151.542 108.136C152.099 108.543 152.787 108.73 153.474 108.661C153.711 108.628 153.928 108.514 154.09 108.338C154.251 108.161 154.345 107.934 154.356 107.695L151.542 108.136ZM166.382 118.923C166.105 119.039 165.88 119.253 165.752 119.525C165.164 120.708 165.983 121.982 167.152 122.745L166.382 118.923ZM145.298 123.571C145.074 124.348 145.046 125.041 144.465 125.671C143.839 126.175 143.279 126.756 142.799 127.4C142.718 127.558 142.679 127.735 142.687 127.913C142.694 128.091 142.748 128.264 142.842 128.415C142.937 128.566 143.069 128.69 143.226 128.775C143.383 128.859 143.559 128.902 143.737 128.898C144.956 128.748 146.075 128.145 146.871 127.209C147.667 126.273 148.083 125.072 148.035 123.844C147.995 123.529 147.85 123.237 147.623 123.016C147.397 122.794 147.101 122.656 146.786 122.625C146.47 122.593 146.153 122.669 145.887 122.841C145.62 123.013 145.42 123.27 145.319 123.571H145.298ZM142.883 116.788C142.491 117.74 142.561 118.818 142.232 119.812C141.943 120.723 141.599 121.616 141.203 122.486C140.909 123.116 141.497 124.11 142.26 123.774C143.501 123.298 144.516 122.37 145.102 121.177C145.634 120.078 146.222 118.23 145.711 117.061C145.2 115.892 143.499 115.409 142.904 116.788H142.883ZM132.495 92.0289C132.886 92.1117 133.294 92.0398 133.633 91.8284C133.972 91.617 134.217 91.2825 134.315 90.8949C134.707 89.3899 133.363 87.8429 132.299 86.9049C131.235 85.9669 129.737 85.1129 128.246 85.5959C128.047 85.6603 127.869 85.7742 127.726 85.927C127.584 86.0798 127.484 86.2664 127.434 86.469C127.384 86.6716 127.387 86.8836 127.442 87.0849C127.497 87.2861 127.603 87.4699 127.749 87.6189C128.4 88.4309 129.303 89.0189 129.996 89.8169C130.689 90.6149 131.298 91.8259 132.516 92.0289H132.495ZM137.899 97.9999C138.487 97.1529 138.032 95.8999 137.612 95.0949C137.388 94.6509 137.04 94.2813 136.611 94.0309C136.322 93.8459 135.971 93.7826 135.636 93.8547C135.3 93.9268 135.006 94.1285 134.819 94.4159C134.628 94.814 134.598 95.2703 134.735 95.6899C134.793 95.9095 134.873 96.1228 134.973 96.3269V96.3899V96.4459C135.098 97.1144 135.381 97.7432 135.799 98.2799C135.943 98.4255 136.12 98.5356 136.314 98.6018C136.508 98.6679 136.715 98.6882 136.918 98.6611C137.122 98.634 137.316 98.5602 137.486 98.4455C137.656 98.3308 137.797 98.1783 137.899 97.9999ZM136.226 105C136.482 105.056 136.747 105.056 137.003 105C137.391 104.88 137.719 104.618 137.92 104.265C138.108 103.889 138.202 103.474 138.193 103.054C138.18 102.656 138.072 102.267 137.878 101.92L137.647 101.633L137.339 101.409C137.146 101.31 136.934 101.255 136.717 101.249C136.5 101.243 136.285 101.286 136.087 101.375C135.889 101.464 135.714 101.596 135.575 101.762C135.435 101.928 135.335 102.123 135.281 102.333C135.164 102.741 135.082 103.157 135.036 103.579L135.099 103.964C135.148 104.157 135.244 104.335 135.379 104.482C135.594 104.716 135.879 104.875 136.191 104.937L136.226 105ZM142.099 97.8949L140.699 96.3199C140.475 96.2933 140.249 96.3499 140.065 96.479C139.88 96.6081 139.75 96.8007 139.698 97.0199C139.642 97.4287 139.642 97.8432 139.698 98.2519C139.698 98.4269 139.698 98.6019 139.698 98.7839C139.694 99.0477 139.722 99.3109 139.782 99.5679C139.858 99.8344 140.022 100.067 140.247 100.23C140.471 100.392 140.744 100.475 141.021 100.464C141.294 100.45 141.556 100.348 141.768 100.174C141.979 100.001 142.13 99.7635 142.197 99.4979C142.302 98.964 142.268 98.4121 142.099 97.8949Z" fill="#030402"/>
<path d="M164.108 128.142C163.541 126.707 162.211 120.477 161.896 118.916C161.581 117.355 160.538 111.083 160.223 109.48C160.223 109.396 160.321 109.34 160.342 109.431C160.678 111.006 162.225 117.215 162.554 118.769C162.883 120.323 164.136 126.553 164.192 128.121C164.194 128.132 164.193 128.144 164.187 128.154C164.181 128.164 164.171 128.171 164.16 128.173C164.149 128.176 164.137 128.174 164.127 128.169C164.118 128.163 164.11 128.153 164.108 128.142Z" fill="#263238"/>
<path d="M159.781 131.04C157.632 131.166 155.483 131.215 153.334 131.201C151.177 131.21 149.021 131.086 146.88 130.83C145.782 130.721 144.709 130.438 143.702 129.99C142.796 129.35 142.009 128.556 141.378 127.645C140.109 125.893 138.96 124.057 137.941 122.15C135.841 118.377 134.035 114.45 132.271 110.544C130.507 106.638 128.904 102.62 127.434 98.5737C129.219 102.487 130.983 106.407 132.817 110.292C134.651 114.177 136.506 118.048 138.508 121.835C139.507 123.724 140.61 125.556 141.812 127.323C142.373 128.202 143.083 128.977 143.912 129.612C144.866 130.052 145.884 130.338 146.929 130.459C151.192 130.975 155.488 131.169 159.781 131.04Z" fill="#263238"/>
<path d="M128.798 101.99C128.511 101.7 128.251 101.384 128.021 101.045C127.784 100.71 127.602 100.339 127.482 99.9463C127.588 100.12 127.702 100.288 127.825 100.45L128.168 100.947C128.399 101.282 128.609 101.63 128.798 101.99Z" fill="#263238"/>
<path d="M139.852 95.501C141.623 97.279 143.212 99.232 144.857 101.101C146.502 102.97 148.077 104.944 149.757 106.806L150.38 107.506C150.492 107.611 150.597 107.73 150.702 107.828C150.807 107.926 150.807 107.919 150.856 107.961C150.856 107.961 150.905 107.961 150.933 107.961C151.465 107.961 152.137 107.842 152.739 107.765L156.463 107.212C158.941 106.848 161.426 106.47 163.911 106.134L164.009 106.75L163.862 106.141H163.897C161.44 106.666 158.997 107.135 156.505 107.59C155.266 107.814 154.027 108.01 152.781 108.199C152.144 108.31 151.501 108.384 150.856 108.423C150.804 108.43 150.753 108.43 150.702 108.423C150.633 108.402 150.569 108.369 150.513 108.325C150.442 108.27 150.374 108.212 150.31 108.15L149.967 107.814C149.743 107.583 149.533 107.352 149.323 107.114C147.678 105.203 146.082 103.271 144.514 101.311L142.169 98.364C141.399 97.447 140.699 96.439 139.852 95.501Z" fill="#263238"/>
<path d="M140.77 95.7114C141.033 96.0353 141.267 96.382 141.47 96.7474C141.667 97.1084 141.806 97.4982 141.883 97.9024C141.799 97.7134 141.694 97.5454 141.596 97.3634L141.309 96.8244C141.109 96.4634 140.929 96.0919 140.77 95.7114Z" fill="#263238"/>
<path d="M56.8117 278.754C56.5527 272.204 56.6438 265.645 57.0847 259.105C58.0501 245.626 60.1079 232.247 63.2377 219.1C64.9527 211.694 67.0667 204.4 69.2717 197.134C69.3347 196.917 69.6847 196.98 69.6287 197.204C62.8177 222.852 57.2247 249.326 57.6097 275.982C57.7217 283.444 58.5827 290.773 59.2897 298.186C59.2897 298.389 58.9817 298.466 58.9397 298.263C57.5327 291.9 57.0777 285.236 56.8117 278.754Z" fill="#787878"/>
<path d="M69.6302 197.168C69.6302 197.168 79.9482 223.362 77.6382 229.515C75.3282 235.668 70.5612 236.984 70.5612 236.984C70.5612 236.984 76.8612 246 72.4652 254.484C68.0692 262.968 58.2552 262.534 57.5972 272.124C57.5972 272.096 57.0512 232.014 69.6302 197.168Z" fill="#787878"/>
<path d="M58.7237 255.549C58.7065 255.504 58.7065 255.454 58.7237 255.409C60.0845 237.527 63.4445 219.853 68.7407 202.72C68.7407 202.671 68.8387 202.685 68.8247 202.72C66.7807 210.378 64.9747 218.078 63.4067 225.82C64.7856 224.511 66.4701 223.567 68.3067 223.076C68.3067 223.076 68.3557 223.076 68.3067 223.125C66.3681 223.842 64.6267 225.008 63.2247 226.527C62.926 228.039 62.6344 229.558 62.3497 231.084C64.6527 228.508 67.8517 227.227 71.0507 226.009C71.0927 226.009 71.1207 226.065 71.0507 226.079C67.7187 227.437 64.3937 229.187 62.1397 232.057C61.3464 236.401 60.6464 240.762 60.0397 245.14C61.708 243.401 63.8457 242.185 66.1927 241.64C66.2627 241.64 66.3047 241.731 66.1927 241.752C63.7704 242.452 61.6036 243.84 59.9557 245.749H59.9137C59.7084 247.289 59.5147 248.831 59.3327 250.376C60.6624 249.278 62.1643 248.408 63.7777 247.8C63.8197 247.8 63.8407 247.849 63.7777 247.863C62.1976 248.563 60.7506 249.532 59.5007 250.726C59.5007 250.726 59.5007 250.726 59.4447 250.726C59.2767 252.189 59.1017 253.659 58.9547 255.129C61.2794 252.321 64.295 250.167 67.7047 248.878C67.7116 248.875 67.719 248.874 67.7264 248.874C67.7338 248.874 67.7412 248.875 67.748 248.878C67.7548 248.881 67.761 248.885 67.7662 248.891C67.7714 248.896 67.7755 248.902 67.7782 248.909C67.781 248.916 67.7823 248.923 67.7823 248.931C67.7822 248.938 67.7806 248.946 67.7777 248.952C67.7748 248.959 67.7705 248.965 67.7652 248.971C67.7599 248.976 67.7536 248.98 67.7467 248.983C64.3787 250.466 61.4198 252.743 59.1227 255.619C59.0991 255.652 59.0651 255.677 59.026 255.69C58.9868 255.703 58.9446 255.702 58.9057 255.689C58.6817 257.943 58.4787 260.204 58.3177 262.465H58.2617C58.3737 260.176 58.5347 257.859 58.7237 255.549Z" fill="#263238"/>
<path d="M67.0108 220.5C68.8788 219.336 71.0142 218.671 73.2128 218.568C73.2618 218.568 73.2688 218.638 73.2128 218.645C71.0892 219.038 69.0271 219.712 67.0808 220.647C67.0625 220.651 67.0434 220.648 67.0268 220.64C67.0101 220.632 66.9967 220.618 66.9886 220.601C66.9806 220.584 66.9784 220.565 66.9824 220.547C66.9864 220.529 66.9964 220.512 67.0108 220.5Z" fill="#263238"/>
<path d="M65.7585 248.227C67.1953 247.406 68.7751 246.867 70.4135 246.638C70.4695 246.638 70.4765 246.715 70.4135 246.722C68.8084 247.044 67.2559 247.589 65.8005 248.339C65.7515 248.367 65.6955 248.262 65.7585 248.227Z" fill="#263238"/>
<path d="M29.6866 229.943C34.0494 232.961 38.0557 236.465 41.6286 240.387C45.323 244.532 48.176 249.356 50.0286 254.59C53.9439 265.498 56.0507 276.973 56.2656 288.561C56.3998 294.979 55.7819 301.39 54.4246 307.664C54.4127 307.708 54.3849 307.746 54.3465 307.77C54.3082 307.794 54.2621 307.803 54.2174 307.796C54.1726 307.788 54.1325 307.763 54.1047 307.727C54.077 307.691 54.0638 307.646 54.0676 307.601C55.7584 296.528 55.7017 285.259 53.8996 274.204C52.1216 263.368 49.3426 251.58 42.4546 242.774C38.6676 238 33.9916 234.213 29.3996 230.3C29.1266 230.104 29.4346 229.768 29.6866 229.943Z" fill="#787878"/>
<path d="M54.7266 280.763C52.245 276.744 49.3269 273.011 46.0256 269.633C40.8596 264.474 36.5126 260.806 35.8406 257.39C35.1686 253.974 41.0136 251.468 41.0136 251.468C41.0136 251.468 33.8666 252.749 31.9136 249.746C29.9606 246.743 29.0156 229.39 29.0156 229.39C29.0156 229.39 42.0006 238.7 48.0696 251.671C54.1386 264.642 54.7266 280.763 54.7266 280.763Z" fill="#787878"/>
<path d="M33.6576 245.7C34.5129 245.577 35.3791 245.549 36.2406 245.616C36.3456 245.616 36.3386 245.798 36.2406 245.798C35.3866 245.798 34.5326 245.756 33.6716 245.798C33.6016 245.784 33.6016 245.7 33.6576 245.7Z" fill="#263238"/>
<path d="M43.0087 262.5C44.3828 262.528 45.7409 262.801 47.0197 263.305C47.0197 263.305 47.0197 263.368 47.0197 263.361C45.6967 263.046 44.3597 262.913 43.0227 262.696C42.8897 262.696 42.8967 262.5 43.0087 262.5Z" fill="#263238"/>
<path d="M45.816 256.697C46.3867 256.692 46.9564 256.744 47.517 256.851C47.573 256.851 47.566 256.956 47.517 256.956C46.9486 256.984 46.3788 256.956 45.816 256.872C45.797 256.867 45.7803 256.855 45.7684 256.839C45.7564 256.824 45.75 256.804 45.75 256.785C45.75 256.765 45.7564 256.746 45.7684 256.73C45.7803 256.714 45.797 256.702 45.816 256.697Z" fill="#263238"/>
<path d="M92.82 248.374C88.5933 249.807 84.5424 251.714 80.745 254.058C76.813 256.57 73.4024 259.817 70.7 263.62C65.01 271.545 60.6523 280.345 57.799 289.674C56.2113 294.837 55.2294 300.168 54.873 305.557C54.873 305.598 54.8893 305.637 54.9182 305.666C54.947 305.695 54.9862 305.711 55.027 305.711C55.0679 305.711 55.1071 305.695 55.1359 305.666C55.1648 305.637 55.181 305.598 55.181 305.557C56.3639 296.219 59.0022 287.123 63 278.6C66.941 270.242 71.918 261.345 79.527 255.815C83.671 252.798 88.326 250.831 92.967 248.745C93.24 248.633 93.1001 248.29 92.82 248.374Z" fill="#787878"/>
<path d="M60.8164 283.71C63.7519 281.029 66.9752 278.682 70.4274 276.71C75.8034 273.728 80.1644 271.761 81.5014 269.157C82.8384 266.553 78.7014 263.165 78.7014 263.165C78.7014 263.165 84.1824 265.853 86.4574 263.865C88.7324 261.877 93.5064 248.052 93.5064 248.052C93.5064 248.052 80.8504 252.56 72.9404 261.688C65.0304 270.816 60.8164 283.71 60.8164 283.71Z" fill="#787878"/>
<path d="M71.324 270.998C72.5663 270.911 73.8139 271.063 74.999 271.446C74.999 271.446 74.999 271.509 74.999 271.502C73.7878 271.299 72.5651 271.172 71.338 271.124C71.3213 271.126 71.3045 271.121 71.2914 271.11C71.2782 271.1 71.2698 271.085 71.268 271.068C71.2661 271.051 71.271 271.034 71.2815 271.021C71.292 271.008 71.3073 271 71.324 270.998Z" fill="#263238"/>
<path d="M82.3694 256.508C82.9359 256.467 83.5053 256.5 84.0633 256.606C84.0741 256.61 84.0833 256.617 84.0898 256.627C84.0964 256.636 84.0999 256.647 84.0999 256.659C84.0999 256.67 84.0964 256.681 84.0898 256.691C84.0833 256.7 84.0741 256.707 84.0633 256.711C83.5103 256.648 82.9574 256.669 82.3974 256.655C82.3801 256.654 82.3637 256.648 82.3507 256.636C82.3376 256.625 82.3288 256.61 82.3256 256.593C82.3223 256.576 82.3249 256.558 82.3328 256.543C82.3408 256.528 82.3536 256.515 82.3694 256.508Z" fill="#263238"/>
<path d="M44.4863 323.015H73.0603L68.9863 293.16L67.9433 285.509H49.6033L48.5603 293.16L44.4863 323.015Z" fill="#343F4A"/>
<path d="M48.5605 293.16H68.9865L67.9435 285.509H49.6035L48.5605 293.16Z" fill="#263238"/>
<path d="M46.9714 289.331H70.5684V282.849H46.9714V289.331Z" fill="#343F4A"/>
<path d="M196.7 42.5383C196.699 45.4191 195.899 48.2431 194.387 50.6953C192.875 53.1476 190.712 55.1315 188.138 56.426C185.565 57.7204 182.682 58.2743 179.812 58.0259C176.942 57.7775 174.198 56.7366 171.885 55.0193L164.262 56.9653L167.433 49.8743C166.317 47.7893 165.691 45.4773 165.603 43.1141C165.514 40.7509 165.966 38.3986 166.924 36.2363C167.881 34.0739 169.319 32.1584 171.128 30.6353C172.937 29.1122 175.07 28.0217 177.364 27.4467C179.658 26.8717 182.053 26.8274 184.366 27.3171C186.68 27.8067 188.851 28.8175 190.716 30.2726C192.58 31.7277 194.088 33.5887 195.125 35.7141C196.162 37.8395 196.7 40.1734 196.7 42.5383Z" fill="#2F3944"/>
<path d="M182.23 44.2185V45.9335C182.235 46.1048 182.205 46.2754 182.141 46.4347C182.078 46.594 181.983 46.7387 181.861 46.8599C181.74 46.9811 181.596 47.0764 181.436 47.1397C181.277 47.2031 181.106 47.2333 180.935 47.2285C180.765 47.2285 180.597 47.1949 180.44 47.1298C180.284 47.0646 180.141 46.9691 180.022 46.8487C179.902 46.7284 179.807 46.5856 179.743 46.4285C179.679 46.2714 179.646 46.1032 179.647 45.9335V43.1965C179.647 43.1965 179.647 43.1965 179.647 43.1405C179.647 43.0845 179.647 43.1405 179.647 43.0915C179.656 42.752 179.794 42.4287 180.034 42.1879C180.273 41.9471 180.596 41.8071 180.935 41.7965C181.335 41.8159 181.734 41.754 182.109 41.6146C182.484 41.4751 182.826 41.2609 183.116 40.985C183.406 40.7091 183.636 40.3772 183.794 40.0095C183.951 39.6419 184.033 39.246 184.033 38.846C184.033 38.4459 183.951 38.0501 183.794 37.6824C183.636 37.3147 183.406 36.9828 183.116 36.7069C182.826 36.4311 182.484 36.2169 182.109 36.0774C181.734 35.9379 181.335 35.876 180.935 35.8955C180.424 35.8939 179.921 36.0269 179.477 36.2813C179.034 36.5356 178.665 36.9023 178.408 37.3445C178.322 37.4936 178.207 37.6242 178.07 37.7289C177.933 37.8336 177.777 37.9102 177.611 37.9544C177.444 37.9987 177.271 38.0096 177.1 37.9866C176.929 37.9636 176.765 37.9071 176.616 37.8205C176.47 37.7339 176.342 37.6194 176.241 37.4834C176.139 37.3475 176.065 37.1927 176.024 37.0281C175.982 36.8635 175.973 36.6923 175.998 36.5244C176.023 36.3564 176.081 36.195 176.168 36.0495C176.628 35.2565 177.279 34.5904 178.06 34.1108C178.842 33.6312 179.73 33.3532 180.645 33.3017C181.561 33.2502 182.475 33.4269 183.305 33.8159C184.136 34.2049 184.856 34.794 185.403 35.5304C185.949 36.2667 186.304 37.1272 186.436 38.0346C186.568 38.9421 186.472 39.868 186.157 40.7293C185.843 41.5906 185.319 42.3603 184.634 42.9693C183.948 43.5783 183.122 44.0075 182.23 44.2185ZM182.23 49.9935V50.4695C182.234 50.6403 182.203 50.8101 182.139 50.9685C182.075 51.127 181.98 51.2709 181.859 51.3913C181.738 51.5118 181.593 51.6064 181.435 51.6693C181.276 51.7323 181.106 51.7623 180.935 51.7575C180.593 51.7575 180.266 51.6218 180.024 51.3802C179.783 51.1387 179.647 50.8111 179.647 50.4695V49.9935C179.651 49.6523 179.787 49.3261 180.028 49.0842C180.268 48.8423 180.594 48.7039 180.935 48.6985C181.106 48.6966 181.275 48.7288 181.433 48.7932C181.591 48.8576 181.734 48.953 181.855 49.0736C181.976 49.1942 182.071 49.3377 182.135 49.4957C182.2 49.6536 182.232 49.8229 182.23 49.9935Z" fill="#9F50F3"/>
<defs>
<linearGradient id="paint0_linear_355_4688" x1="62.7474" y1="281.058" x2="96.4784" y2="319.952" gradientUnits="userSpaceOnUse">
<stop stop-color="#727272"/>
<stop offset="1" stop-color="#424242"/>
</linearGradient>
<linearGradient id="paint1_linear_355_4688" x1="70.9045" y1="309.194" x2="40.9481" y2="291.361" gradientUnits="userSpaceOnUse">
<stop stop-color="#727272"/>
<stop offset="1" stop-color="#424242"/>
</linearGradient>
<linearGradient id="paint2_linear_355_4688" x1="62.7474" y1="195.875" x2="93.7615" y2="234.282" gradientUnits="userSpaceOnUse">
<stop stop-color="#727272"/>
<stop offset="1" stop-color="#424242"/>
</linearGradient>
<linearGradient id="paint3_linear_355_4688" x1="70.9045" y1="222.072" x2="42.1046" y2="203.66" gradientUnits="userSpaceOnUse">
<stop stop-color="#727272"/>
<stop offset="1" stop-color="#424242"/>
</linearGradient>
<linearGradient id="paint4_linear_355_4688" x1="59.3939" y1="242.944" x2="75.2234" y2="274.46" gradientUnits="userSpaceOnUse">
<stop stop-color="#727272"/>
<stop offset="1" stop-color="#424242"/>
</linearGradient>
<linearGradient id="paint5_linear_355_4688" x1="67.5451" y1="259.236" x2="47.8193" y2="238.958" gradientUnits="userSpaceOnUse">
<stop stop-color="#727272"/>
<stop offset="1" stop-color="#424242"/>
</linearGradient>
<linearGradient id="paint6_linear_355_4688" x1="255.494" y1="286.315" x2="284.202" y2="324.152" gradientUnits="userSpaceOnUse">
<stop stop-color="#727272"/>
<stop offset="1" stop-color="#424242"/>
</linearGradient>
<linearGradient id="paint7_linear_355_4688" x1="159.873" y1="279.621" x2="192.006" y2="329.274" gradientUnits="userSpaceOnUse">
<stop stop-color="#727272"/>
<stop offset="1" stop-color="#424242"/>
</linearGradient>
<linearGradient id="paint8_linear_355_4688" x1="234.145" y1="279.628" x2="265.519" y2="298.84" gradientUnits="userSpaceOnUse">
<stop stop-color="#727272"/>
<stop offset="1" stop-color="#424242"/>
</linearGradient>
<linearGradient id="paint9_linear_355_4688" x1="236.456" y1="281.628" x2="263.504" y2="298.188" gradientUnits="userSpaceOnUse">
<stop stop-color="#727272"/>
<stop offset="1" stop-color="#424242"/>
</linearGradient>
<linearGradient id="paint10_linear_355_4688" x1="236.456" y1="281.628" x2="263.504" y2="298.188" gradientUnits="userSpaceOnUse">
<stop stop-color="#727272"/>
<stop offset="1" stop-color="#424242"/>
</linearGradient>
<linearGradient id="paint11_linear_355_4688" x1="183.688" y1="221.973" x2="218.553" y2="262.175" gradientUnits="userSpaceOnUse">
<stop stop-color="#727272"/>
<stop offset="1" stop-color="#424242"/>
</linearGradient>
<linearGradient id="paint12_linear_355_4688" x1="238.434" y1="221.975" x2="269.398" y2="240.408" gradientUnits="userSpaceOnUse">
<stop stop-color="#727272"/>
<stop offset="1" stop-color="#424242"/>
</linearGradient>
<linearGradient id="paint13_linear_355_4688" x1="120.184" y1="294.803" x2="120.454" y2="296.886" gradientUnits="userSpaceOnUse">
<stop stop-color="#727272"/>
<stop offset="1" stop-color="#424242"/>
</linearGradient>
<linearGradient id="paint14_linear_355_4688" x1="122.17" y1="296.825" x2="122.441" y2="298.911" gradientUnits="userSpaceOnUse">
<stop stop-color="#727272"/>
<stop offset="1" stop-color="#424242"/>
</linearGradient>
<linearGradient id="paint15_linear_355_4688" x1="124.168" y1="298.841" x2="124.439" y2="300.926" gradientUnits="userSpaceOnUse">
<stop stop-color="#727272"/>
<stop offset="1" stop-color="#424242"/>
</linearGradient>
<linearGradient id="paint16_linear_355_4688" x1="98.1004" y1="295.033" x2="101.912" y2="299.871" gradientUnits="userSpaceOnUse">
<stop stop-color="#727272"/>
<stop offset="1" stop-color="#424242"/>
</linearGradient>
<linearGradient id="paint17_linear_355_4688" x1="163.032" y1="303.762" x2="163.641" y2="306.824" gradientUnits="userSpaceOnUse">
<stop stop-color="#727272"/>
<stop offset="1" stop-color="#424242"/>
</linearGradient>
<linearGradient id="paint18_linear_355_4688" x1="165.436" y1="305.269" x2="166.055" y2="308.362" gradientUnits="userSpaceOnUse">
<stop stop-color="#727272"/>
<stop offset="1" stop-color="#424242"/>
</linearGradient>
<linearGradient id="paint19_linear_355_4688" x1="167.843" y1="306.766" x2="168.453" y2="309.827" gradientUnits="userSpaceOnUse">
<stop stop-color="#727272"/>
<stop offset="1" stop-color="#424242"/>
</linearGradient>
<linearGradient id="paint20_linear_355_4688" x1="141.791" y1="309.597" x2="145.629" y2="314.387" gradientUnits="userSpaceOnUse">
<stop stop-color="#727272"/>
<stop offset="1" stop-color="#424242"/>
</linearGradient>
</defs>
</svg>
