<svg width="107" height="100" viewBox="0 0 107 100" fill="none" xmlns="http://www.w3.org/2000/svg">
<path d="M0 17.5195L70.7984 27.6739L80.2985 37.2249L0 17.5195Z" fill="#565656"/>
<path d="M0 17.5195L70.7984 27.6739L67.5127 41.4852L0 17.5195Z" fill="#9B72F3"/>
<path d="M66.0585 1.53056L70.1672 20.713C70.2741 21.2139 70.1772 21.7366 69.8977 22.1664C69.6182 22.5962 69.1791 22.898 68.6765 23.0056L32.0056 30.8024C31.5029 30.908 30.9786 30.8111 30.5474 30.5328C30.1162 30.2546 29.8131 29.8175 29.7043 29.3173L25.5925 10.1348C25.4866 9.63357 25.5843 9.1109 25.8642 8.68123C26.1442 8.25156 26.5836 7.94988 27.0863 7.84222L63.7573 0.0454716C64.2604 -0.0600748 64.785 0.0372568 65.2163 0.316166C65.6476 0.595075 65.9504 1.03284 66.0585 1.53366V1.53056Z" fill="#895AED" fill-opacity="0.8"/>
<path d="M65.1541 0.274279L52.9025 15.2583C51.7662 16.6475 50.188 17.6087 48.4289 17.9828C46.6697 18.3569 44.8351 18.1216 43.2285 17.3157L25.9023 8.62175C26.1827 8.22059 26.6057 7.94073 27.0856 7.83898L63.7565 0.0422333C64.2351 -0.0592334 64.7344 0.0236795 65.1541 0.274279Z" fill="#895AED"/>
<path d="M0 17.5195L58.3946 31.3464L67.5127 41.4852L0 17.5195Z" fill="#565656"/>
<path d="M0 17.5195L58.3946 31.3464L47.0437 44.9752L0 17.5195Z" fill="#895AED"/>
<path d="M78.1087 49.9137C78.03 49.9139 77.952 49.8992 77.8789 49.8704L68.3695 46.1205C68.2174 46.0594 68.0956 45.9409 68.0309 45.7908C67.9662 45.6406 67.9637 45.4711 68.0239 45.3191C68.0842 45.1671 68.2024 45.0451 68.3527 44.9796C68.5029 44.9141 68.6731 44.9105 68.826 44.9695L78.3385 48.7194C78.4731 48.7724 78.5848 48.8705 78.6545 48.9969C78.7242 49.1232 78.7475 49.2698 78.7202 49.4114C78.693 49.553 78.617 49.6806 78.5053 49.7723C78.3937 49.864 78.2534 49.914 78.1087 49.9137Z" fill="#895AED"/>
<path d="M77.5446 44.4796C77.4667 44.4792 77.3897 44.4634 77.3179 44.4332L72.2092 42.4067C72.1328 42.3772 72.063 42.333 72.0039 42.2765C71.9448 42.22 71.8974 42.1525 71.8646 42.0777C71.8317 42.003 71.8141 41.9225 71.8126 41.8409C71.8111 41.7593 71.8259 41.6782 71.856 41.6023C71.8861 41.5264 71.9309 41.4572 71.988 41.3987C72.0451 41.3401 72.1132 41.2934 72.1885 41.2612C72.2637 41.229 72.3446 41.2119 72.4265 41.211C72.5084 41.21 72.5897 41.2253 72.6657 41.2558L77.7744 43.273C77.9275 43.333 78.0505 43.4511 78.1163 43.6014C78.182 43.7516 78.1853 43.9217 78.1254 44.0743C78.0816 44.1929 78.0026 44.2952 77.8987 44.3677C77.7949 44.4401 77.6714 44.4792 77.5446 44.4796Z" fill="#9B72F3"/>
<path d="M66.8608 49.8343C66.7832 49.8334 66.7064 49.8187 66.634 49.791L57.3576 46.1215C57.2812 46.0921 57.2115 46.0478 57.1523 45.9914C57.0932 45.9349 57.0458 45.8673 57.013 45.7926C56.9802 45.7178 56.9625 45.6373 56.961 45.5557C56.9596 45.4741 56.9743 45.3931 57.0044 45.3172C57.0345 45.2413 57.0794 45.1721 57.1364 45.1135C57.1935 45.055 57.2616 45.0082 57.3369 44.976C57.4122 44.9438 57.4931 44.9268 57.575 44.9258C57.6569 44.9249 57.7382 44.9401 57.8141 44.9706L67.0906 48.6276C67.2251 48.6806 67.3369 48.7788 67.4066 48.9051C67.4763 49.0314 67.4995 49.178 67.4723 49.3196C67.445 49.4612 67.369 49.5889 67.2574 49.6806C67.1457 49.7723 67.0055 49.8223 66.8608 49.8219V49.8343Z" fill="#895AED"/>
<path d="M100.445 21.9297C101.268 23.5293 102.022 25.1319 102.74 26.7717C103.457 28.4115 104.125 30.073 104.709 31.8148L104.92 32.4739C104.957 32.5914 105.01 32.7832 105.041 32.9194C105.072 33.0555 105.1 33.2102 105.116 33.3402C105.187 33.8393 105.223 34.3428 105.224 34.8469C105.229 35.7767 105.185 36.7061 105.094 37.6315C104.92 39.4227 104.638 41.2019 104.249 42.9592L102.544 42.7705C102.522 41.0286 102.507 39.2682 102.445 37.551C102.417 36.6971 102.367 35.8401 102.28 35.0356C102.241 34.6579 102.179 34.2828 102.094 33.9125C102.078 33.8259 102.053 33.7609 102.035 33.6898C102.016 33.6186 101.998 33.5939 101.966 33.501L101.73 32.9163C101.081 31.3508 100.352 29.7728 99.6062 28.2011L97.3516 23.4859L100.445 21.9297Z" fill="#E4897B"/>
<path d="M102.565 42.2266L101.77 43.7086L104.31 44.414C104.31 44.414 104.794 43.2228 104.217 42.2823L102.565 42.2266Z" fill="#E4897B"/>
<path d="M100.797 45.8419L103.132 46.0275L104.309 44.4125L101.769 43.707L100.797 45.8419Z" fill="#E4897B"/>
<path d="M89.7494 11.2364C89.7152 11.419 89.5876 11.5458 89.4693 11.5211C89.351 11.4963 89.2857 11.3324 89.323 11.1529C89.3604 10.9735 89.4848 10.8435 89.6031 10.8683C89.7214 10.893 89.7899 11.057 89.7494 11.2364Z" fill="#263238"/>
<path d="M89.6028 11.5469C89.2748 12.0531 88.8788 12.5121 88.4258 12.9113C88.5315 13.0234 88.6604 13.1113 88.8036 13.169C88.9467 13.2267 89.1007 13.2528 89.255 13.2455L89.6028 11.5469Z" fill="#DE5753"/>
<path d="M90.6141 10.3737C90.5848 10.3729 90.5569 10.3607 90.5365 10.3396C90.4473 10.238 90.3353 10.1587 90.2096 10.1081C90.0838 10.0576 89.948 10.0373 89.8129 10.0488C89.7872 10.0491 89.7622 10.0402 89.7424 10.0238C89.7226 10.0074 89.7093 9.9846 89.7048 9.95935C89.7003 9.9341 89.705 9.90809 89.7179 9.88595C89.7309 9.8638 89.7514 9.84696 89.7756 9.83842C89.9483 9.81662 90.1238 9.8377 90.2863 9.89978C90.4489 9.96185 90.5935 10.063 90.7073 10.1942C90.7272 10.2145 90.7384 10.2417 90.7384 10.27C90.7384 10.2984 90.7272 10.3256 90.7073 10.3458C90.6949 10.3572 90.68 10.3656 90.6639 10.3704C90.6478 10.3752 90.6308 10.3763 90.6141 10.3737Z" fill="#263238"/>
<path d="M94.8889 13.7656C94.5628 15.4302 94.2368 18.4746 95.4045 19.5853C95.4045 19.5853 94.9479 21.2715 91.8454 21.2715C88.4293 21.2715 90.2181 19.5853 90.2181 19.5853C92.0815 19.1429 92.0287 17.7661 91.7057 16.4759L94.8889 13.7656Z" fill="#E4897B"/>
<path d="M95.8702 20.6336C96.1156 19.8199 96.3857 18.8886 95.8267 18.5947C95.2056 18.2853 91.8298 17.945 90.6652 18.5483C89.5006 19.1516 89.8329 20.8069 89.8329 20.8069L95.8702 20.6336Z" fill="#263238"/>
<path d="M103.03 97.7869C102.933 97.7997 102.835 97.7932 102.741 97.7677C102.647 97.7422 102.56 97.6982 102.483 97.6384C102.456 97.601 102.441 97.5561 102.441 97.51C102.441 97.4639 102.456 97.419 102.483 97.3816C102.501 97.3496 102.525 97.3217 102.555 97.2998C102.584 97.2779 102.618 97.2626 102.654 97.2548C102.989 97.1805 103.617 97.6075 103.644 97.626C103.653 97.6327 103.659 97.6414 103.663 97.6511C103.666 97.6608 103.668 97.6714 103.666 97.6817C103.664 97.6917 103.66 97.701 103.652 97.7082C103.645 97.7154 103.636 97.7202 103.626 97.7219C103.43 97.7641 103.23 97.7858 103.03 97.7869ZM102.744 97.3538H102.679C102.658 97.3581 102.638 97.367 102.621 97.3798C102.603 97.3927 102.589 97.4091 102.579 97.428C102.53 97.5146 102.561 97.5518 102.579 97.5642C102.676 97.6941 103.141 97.6941 103.483 97.6384C103.26 97.492 103.008 97.3969 102.744 97.36V97.3538Z" fill="#407BFF"/>
<path d="M103.621 97.7318H103.596C103.359 97.6018 102.902 97.113 102.949 96.8531C102.957 96.813 102.978 96.7768 103.01 96.7508C103.042 96.7249 103.082 96.7107 103.123 96.7108C103.164 96.7064 103.205 96.7101 103.245 96.7218C103.284 96.7335 103.321 96.7529 103.353 96.7788C103.618 96.9954 103.664 97.6513 103.664 97.6792C103.666 97.6889 103.664 97.6989 103.66 97.7077C103.655 97.7165 103.648 97.7238 103.64 97.7287C103.634 97.7311 103.627 97.7321 103.621 97.7318ZM103.16 96.8036H103.148C103.076 96.8036 103.07 96.8469 103.067 96.8593C103.039 97.0109 103.331 97.3852 103.565 97.5616C103.549 97.3031 103.456 97.0553 103.297 96.85C103.276 96.8337 103.252 96.8218 103.227 96.8149C103.201 96.808 103.174 96.8062 103.148 96.8098L103.16 96.8036Z" fill="#407BFF"/>
<path d="M89.3293 97.7874C89.0374 97.7874 88.7547 97.7472 88.6585 97.6172C88.6341 97.5828 88.6211 97.5418 88.6211 97.4997C88.6211 97.4576 88.6341 97.4165 88.6585 97.3821C88.6773 97.3503 88.7025 97.3227 88.7324 97.3009C88.7622 97.2791 88.7963 97.2635 88.8324 97.2552C89.2082 97.1531 90.0094 97.6049 90.0436 97.6234C90.0527 97.6293 90.0599 97.6377 90.0643 97.6476C90.0687 97.6575 90.0702 97.6684 90.0684 97.6791C90.0666 97.6899 90.0615 97.7 90.0537 97.7077C90.0459 97.7155 90.0358 97.7206 90.0249 97.7224C89.7956 97.7654 89.5627 97.7872 89.3293 97.7874ZM88.9659 97.3481C88.9319 97.3431 88.8974 97.3431 88.8634 97.3481C88.8416 97.3523 88.8209 97.3612 88.8027 97.374C88.7845 97.3868 88.7692 97.4032 88.7579 97.4223C88.7175 97.4904 88.733 97.5213 88.7579 97.5399C88.8603 97.6822 89.438 97.6915 89.8666 97.6327C89.5873 97.4825 89.2814 97.3879 88.9659 97.3542V97.3481Z" fill="#407BFF"/>
<path d="M90.0267 97.7323H90.0049C89.7283 97.6117 89.1844 97.1135 89.2248 96.8629C89.2248 96.801 89.2776 96.7268 89.4268 96.7113C89.4823 96.7029 89.539 96.7069 89.5927 96.723C89.6465 96.739 89.696 96.7667 89.7376 96.8041C90.0298 97.0393 90.0889 97.6519 90.092 97.6797C90.0932 97.6892 90.0918 97.6987 90.088 97.7075C90.0841 97.7162 90.078 97.7237 90.0702 97.7292C90.0636 97.7328 90.0563 97.7349 90.0488 97.7354C90.0413 97.736 90.0338 97.7349 90.0267 97.7323ZM89.4703 96.8041H89.4361C89.3398 96.8041 89.3336 96.8536 89.3305 96.866C89.3056 97.0207 89.6786 97.4074 89.9521 97.5745C89.9253 97.3146 89.8164 97.0699 89.6413 96.8753C89.5969 96.8371 89.5413 96.8143 89.4828 96.8103L89.4703 96.8041Z" fill="#407BFF"/>
<path d="M92.5289 97.6769H90.2462L90.0195 92.4141H92.3022L92.5289 97.6769Z" fill="#E4897B"/>
<path d="M106.229 97.6769H103.947L102.801 92.4141H105.08L106.229 97.6769Z" fill="#E4897B"/>
<path d="M103.785 97.4121H106.347C106.393 97.4124 106.437 97.4282 106.473 97.4569C106.509 97.4856 106.533 97.5254 106.543 97.5699L106.993 99.5902C107.004 99.6394 107.003 99.6903 106.991 99.7391C106.978 99.7879 106.955 99.8333 106.923 99.8719C106.891 99.9106 106.85 99.9415 106.804 99.9624C106.758 99.9832 106.708 99.9935 106.658 99.9925C105.764 99.977 105.329 99.9244 104.202 99.9244C103.509 99.9244 102.08 99.9986 101.121 99.9986C100.161 99.9986 100.04 99.0705 100.431 98.9684C102.189 98.5847 102.851 98.0557 103.413 97.5544C103.515 97.4624 103.648 97.4117 103.785 97.4121Z" fill="#263238"/>
<path d="M90.2705 97.4121H92.755C92.8007 97.4124 92.8449 97.4282 92.8805 97.4569C92.916 97.4856 92.9408 97.5254 92.9506 97.5699L93.4009 99.5902C93.4117 99.639 93.4113 99.6895 93.3997 99.7381C93.3881 99.7866 93.3656 99.832 93.3339 99.8706C93.3023 99.9093 93.2622 99.9404 93.2168 99.9615C93.1714 99.9826 93.1218 99.9932 93.0717 99.9925C92.1742 99.977 90.8761 99.9244 89.7456 99.9244C88.4257 99.9244 87.2829 99.9986 85.7332 99.9986C84.8015 99.9986 84.5375 99.0705 84.9288 98.9684C86.7145 98.5785 88.1711 98.5383 89.7146 97.5916C89.8789 97.4802 90.0718 97.418 90.2705 97.4121Z" fill="#263238"/>
<path d="M89.1628 23.5767C87.255 23.4294 85.3567 23.1784 83.4764 22.8248C82.5448 22.6454 81.5944 22.4443 80.6503 22.1906C79.6826 21.9438 78.7323 21.6338 77.8056 21.2624C77.5665 21.1634 77.3242 21.0551 77.0851 20.953C76.8159 20.8209 76.5565 20.6699 76.3087 20.5013C75.8615 20.2074 75.4764 19.9011 75.0944 19.5979C74.3335 18.9791 73.6286 18.3603 72.9205 17.726C71.5323 16.4451 70.2155 15.1209 68.9453 13.7286L70.0882 12.457L74.5944 15.684C75.3366 16.2162 76.0882 16.7391 76.8273 17.231C77.1938 17.4754 77.5696 17.7044 77.9143 17.8993C78.0584 17.9812 78.2078 18.0535 78.3615 18.1159C78.5447 18.187 78.7311 18.2582 78.9267 18.3262C80.6052 18.8411 82.3217 19.2239 84.0603 19.471C85.8336 19.7495 87.6659 19.9784 89.4361 20.1641L89.1628 23.5767Z" fill="#E4897B"/>
<path d="M99.4845 20.0985C101.624 20.5873 103.786 26.8155 103.786 26.8155L99.3851 29.962C99.3851 29.962 98.1429 27.0599 96.9441 24.5228C95.6895 21.8651 97.2982 19.6004 99.4845 20.0985Z" fill="#895AED"/>
<path d="M98.2516 23.5L97.3789 25.4461C98.2826 27.3891 99.1087 29.3135 99.3292 29.8271C99.2982 27.5283 98.8603 24.6757 98.2516 23.5Z" fill="#407BFF"/>
<path opacity="0.6" d="M98.2516 23.5L97.3789 25.4461C98.2826 27.3891 99.1087 29.3135 99.3292 29.8271C99.2982 27.5283 98.8603 24.6757 98.2516 23.5Z" fill="black"/>
<path d="M86.707 20.2172C86.707 20.2172 84.2784 22.9491 86.5703 39.8638H98.7722C98.8592 38.0074 97.6822 28.8926 99.4865 20.0996C98.1378 19.8409 96.7736 19.6693 95.4027 19.586C93.6753 19.4869 91.9436 19.4869 90.2163 19.586C89.0318 19.7049 87.8584 19.916 86.707 20.2172Z" fill="#895AED"/>
<path d="M85.7965 23.5C85.7158 24.1404 85.6537 24.8985 85.6133 25.7926C86.8183 25.4323 87.9632 24.8964 89.0108 24.2023L85.7965 23.5Z" fill="#407BFF"/>
<path opacity="0.6" d="M85.7965 23.5C85.7158 24.1404 85.6537 24.8985 85.6133 25.7926C86.8183 25.4323 87.9632 24.8964 89.0108 24.2023L85.7965 23.5Z" fill="black"/>
<path d="M91.0355 23.8433C89.402 25.285 83.1659 25.1396 83.1659 25.1396L82.9609 19.125C85.0668 19.4238 87.191 19.5768 89.3181 19.5829C92.7933 19.5117 92.8181 22.253 91.0355 23.8433Z" fill="#895AED"/>
<path d="M70.1525 12.4669L68.5997 10.6445L66.9258 12.5009C66.9258 12.5009 67.9568 14.2273 69.5935 13.9551L70.1525 12.4669Z" fill="#E4897B"/>
<path d="M66.3759 8.52148L65.7734 10.9007L66.9132 12.491L68.5871 10.647L66.3759 8.52148Z" fill="#E4897B"/>
<path d="M90.0195 92.416L90.1375 95.1263H92.4202L92.3022 92.416H90.0195Z" fill="#CE6F64"/>
<path d="M105.083 92.416H102.801L103.391 95.1263H105.673L105.083 92.416Z" fill="#CE6F64"/>
<path d="M91.3988 8.99082C89.3522 8.06263 88.7063 3.9384 94.5945 4.96869C94.5945 4.96869 93.7063 5.94638 95.5075 6.56517C97.3088 7.18396 95.8026 11.005 91.3988 8.99082Z" fill="#263238"/>
<path d="M95.8416 12.0852C95.2546 14.251 95.0248 15.569 93.6677 16.4755C91.6366 17.8369 89.1117 16.2744 89.031 13.9632C88.9596 11.8872 89.9316 8.67258 92.2764 8.23324C92.7939 8.13215 93.3288 8.16484 93.8301 8.3282C94.3313 8.49155 94.7822 8.78013 95.1397 9.1664C95.4973 9.55267 95.7495 10.0238 95.8723 10.5347C95.9952 11.0457 95.9846 11.5795 95.8416 12.0852Z" fill="#E4897B"/>
<path d="M94.5078 6.05098C95.9022 6.82447 97.7905 7.28856 97.6134 8.39C97.3805 9.73587 98.7532 8.89432 98.4333 10.8961C98.2252 12.2048 95.8029 16.1713 94.0855 15.9795C91.5202 15.6701 91.8463 11.7841 91.837 9.73587C91.8308 8.52614 91.7749 4.52567 94.5078 6.05098Z" fill="#263238"/>
<path d="M91.5336 7.78711C90.9125 7.93252 90.0895 11.4998 92.4964 11.8278C95.2635 12.2022 91.5336 7.78711 91.5336 7.78711Z" fill="#263238"/>
<path d="M91.5919 9.05238C90.831 9.12045 89.1074 8.20774 89.3186 6.83402C89.3186 6.82474 90.4086 8.43978 91.5919 9.05238Z" fill="#263238"/>
<path d="M92.7274 12.1134C92.4939 12.6235 92.0975 13.0424 91.6001 13.3046C90.9448 13.6449 90.5752 13.1499 90.7243 12.494C90.8578 11.9061 91.3609 11.0182 92.0348 10.947C92.7087 10.8758 92.9976 11.4946 92.7274 12.1134Z" fill="#E4897B"/>
<path d="M96.1445 9.60966C96.6086 9.40901 97.0156 9.09681 97.3288 8.70102C97.6421 8.30523 97.8519 7.83822 97.9396 7.3418C97.9396 7.3418 98.9644 10.1789 96.1445 9.60966Z" fill="#263238"/>
<path d="M98.7267 9.56356C98.5106 9.41896 98.2619 9.32999 98.0028 9.30461C97.7437 9.27923 97.4824 9.31824 97.2422 9.41814C97.2422 9.41814 98.1987 8.18366 98.7267 9.56356Z" fill="#263238"/>
<path d="M90.8984 39.862C90.8984 39.862 93.4885 57.2314 94.9078 63.738C96.4606 70.854 102.33 94.6032 102.33 94.6032H106.507C106.507 94.6032 102.641 71.4388 101.753 64.3722C100.79 56.7147 98.7711 39.8496 98.7711 39.8496L90.8984 39.862Z" fill="url(#paint0_linear_1540_9775)"/>
<path d="M101.661 93.0703C101.642 93.0703 102.092 94.6699 102.092 94.6699H106.794L106.707 93.2436L101.661 93.0703Z" fill="#895AED"/>
<path d="M92.5333 46.0498C95.5271 46.6345 95.2103 57.7573 94.8501 63.478C93.9867 59.4342 92.7227 51.6529 91.8594 46.1302C92.0682 46.0277 92.306 45.9993 92.5333 46.0498Z" fill="#4E4E4E"/>
<path d="M86.5736 39.8633C86.5736 39.8633 86.2631 56.8552 86.5084 63.7888C86.7662 70.9977 89.3035 94.6045 89.3035 94.6045H93.1668C93.1668 94.6045 93.3097 71.4184 93.4774 64.3395C93.6668 56.6201 94.6016 39.8633 94.6016 39.8633H86.5736Z" fill="url(#paint1_linear_1540_9775)"/>
<path d="M90.0933 91.8376C90.084 91.8376 90.0749 91.8341 90.068 91.8278C90.0611 91.8215 90.0568 91.8128 90.0561 91.8035C89.3728 85.2691 87.7672 69.459 87.5716 63.7878C87.3635 57.9991 87.5529 45.0107 87.6151 41.168C87.6151 41.1581 87.619 41.1487 87.626 41.1417C87.633 41.1348 87.6424 41.1309 87.6523 41.1309C87.6625 41.1308 87.6723 41.1346 87.6798 41.1415C87.6873 41.1484 87.6919 41.1579 87.6927 41.168C87.6306 45.0107 87.4411 57.9991 87.6492 63.7847C87.8511 69.4559 89.4567 85.2598 90.1337 91.7942C90.1338 91.8047 90.1301 91.8149 90.1232 91.8229C90.1164 91.8308 90.1069 91.8361 90.0964 91.8376H90.0933Z" fill="#212121"/>
<path d="M88.5476 93.0703C88.5321 93.0703 88.7681 94.6699 88.7681 94.6699H93.4669L93.5942 93.2436L88.5476 93.0703Z" fill="#895AED"/>
<defs>
<linearGradient id="paint0_linear_1540_9775" x1="89.2325" y1="53.4172" x2="110.736" y2="61.2438" gradientUnits="userSpaceOnUse">
<stop stop-color="#727272"/>
<stop offset="1" stop-color="#424242"/>
</linearGradient>
<linearGradient id="paint1_linear_1540_9775" x1="85.5402" y1="53.4278" x2="97.8646" y2="55.7813" gradientUnits="userSpaceOnUse">
<stop stop-color="#727272"/>
<stop offset="1" stop-color="#424242"/>
</linearGradient>
</defs>
</svg>
