<svg width="500" height="500" viewBox="0 0 500 500" fill="none" xmlns="http://www.w3.org/2000/svg">
<path d="M420.519 82.4199H194.289V212.2H420.519V82.4199Z" fill="#E6E6E6"/>
<path d="M426.569 82.4199H197.119V212.2H426.569V82.4199Z" fill="#424242"/>
<path d="M420.519 212.201H194.289V223.441H420.519V212.201Z" fill="#E6E6E6"/>
<path d="M436.638 212.201H207.188V223.441H436.638V212.201Z" fill="#F0F0F0"/>
<path d="M418.098 203.73V90.8796L205.578 90.8796V203.73H418.098Z" fill="#424242"/>
<path d="M209.498 195.309C209.338 195.307 209.186 195.241 209.074 195.127C208.961 195.013 208.898 194.86 208.898 194.699V96.3895C208.917 96.2424 208.989 96.1073 209.101 96.0094C209.212 95.9114 209.355 95.8574 209.503 95.8574C209.652 95.8574 209.795 95.9114 209.906 96.0094C210.018 96.1073 210.089 96.2424 210.108 96.3895V194.699C210.108 194.78 210.093 194.859 210.062 194.933C210.031 195.007 209.986 195.074 209.93 195.131C209.873 195.187 209.806 195.232 209.732 195.263C209.658 195.294 209.579 195.309 209.498 195.309Z" fill="#F0F0F0"/>
<path d="M418.098 203.73V90.8796H417.028V203.73H418.098Z" fill="#E6E6E6"/>
<path opacity="0.6" d="M428.569 103.65H202.339L201.559 94.1697H427.789L428.569 103.65Z" fill="#EBEBEB"/>
<path opacity="0.6" d="M428.569 119.18H202.339L201.559 109.71H427.789L428.569 119.18Z" fill="#EBEBEB"/>
<path opacity="0.6" d="M428.569 134.72H202.339L201.559 125.25H427.789L428.569 134.72Z" fill="#EBEBEB"/>
<path opacity="0.6" d="M428.569 150.26H202.339L201.559 140.78H427.789L428.569 150.26Z" fill="#EBEBEB"/>
<path opacity="0.6" d="M428.569 165.801H202.339L201.559 156.321H427.789L428.569 165.801Z" fill="#EBEBEB"/>
<path opacity="0.6" d="M428.569 181.33H202.339L201.559 171.86H427.789L428.569 181.33Z" fill="#EBEBEB"/>
<path d="M106.159 195.28L93.6588 182.78C90.6392 179.752 88.9434 175.651 88.9434 171.375C88.9434 167.099 90.6392 162.997 93.6588 159.97L106.159 147.46C106.284 147.339 106.45 147.272 106.624 147.272C106.797 147.272 106.964 147.339 107.089 147.46L119.599 160C122.619 163.027 124.314 167.129 124.314 171.405C124.314 175.681 122.619 179.782 119.599 182.81L107.089 195.31C107.026 195.37 106.952 195.417 106.871 195.448C106.791 195.479 106.704 195.494 106.618 195.491C106.531 195.488 106.446 195.468 106.367 195.432C106.288 195.395 106.217 195.344 106.159 195.28ZM106.629 148.86L94.6288 160.86C91.8571 163.641 90.3007 167.408 90.3007 171.335C90.3007 175.262 91.8571 179.028 94.6288 181.81L106.629 193.81L118.629 181.81C121.405 179.031 122.965 175.263 122.965 171.335C122.965 167.406 121.405 163.639 118.629 160.86L106.629 148.86Z" fill="#F0F0F0"/>
<path d="M223.339 275.271C222.829 275.271 222.339 275.271 221.789 275.321C210.789 276.201 201.969 286.641 201.269 299.501C201.112 302.354 201.357 305.216 201.999 308.001C204.418 319.091 205.582 330.419 205.469 341.771V374.941C205.469 377.341 207.129 379.291 209.179 379.291H282.379V275.291L223.339 275.271Z" fill="url(#paint0_linear_355_6793)"/>
<path d="M304.478 301.201C304.478 286.281 293.728 274.301 280.808 275.331C269.808 276.211 260.978 286.651 260.288 299.511C260.121 302.361 260.36 305.219 260.998 308.001C263.418 319.092 264.582 330.42 264.468 341.771V374.941C264.468 377.341 266.128 379.291 268.178 379.291H296.538C298.538 379.291 300.248 377.341 300.248 374.941V339.781C300.166 329.134 301.317 318.514 303.678 308.131C304.211 305.86 304.48 303.534 304.478 301.201Z" fill="#424242"/>
<path d="M251.879 320.45H174.629V379.24H251.879V320.45Z" fill="#454545"/>
<path d="M126.128 250H210.998C215.806 250 220.418 251.91 223.818 255.31C227.218 258.71 229.128 263.322 229.128 268.13V330.39H107.998V268.13C107.998 263.322 109.908 258.71 113.308 255.31C116.708 251.91 121.32 250 126.128 250Z" fill="url(#paint1_linear_355_6793)"/>
<path d="M139.318 250H215.748C218.094 250 220.418 250.462 222.586 251.36C224.754 252.258 226.724 253.575 228.384 255.234C230.043 256.893 231.359 258.863 232.257 261.031C233.155 263.2 233.618 265.523 233.618 267.87V330.39H121.438V267.87C121.437 265.522 121.9 263.198 122.799 261.029C123.697 258.86 125.015 256.89 126.675 255.23C128.335 253.571 130.307 252.255 132.476 251.357C134.645 250.46 136.97 249.999 139.318 250Z" fill="#454545"/>
<path d="M179.609 318.33H251.809C252.841 318.33 253.83 318.74 254.56 319.469C255.289 320.199 255.699 321.188 255.699 322.22V328.48C255.699 329.512 255.289 330.501 254.56 331.231C253.83 331.96 252.841 332.37 251.809 332.37H179.609C179.302 332.37 179.007 332.248 178.789 332.03C178.571 331.813 178.449 331.518 178.449 331.21V319.49C178.449 319.182 178.571 318.887 178.789 318.67C179.007 318.452 179.302 318.33 179.609 318.33Z" fill="url(#paint2_linear_355_6793)"/>
<path d="M98.9397 379.24H283.47V379.48C283.47 380.255 283.162 380.997 282.614 381.545C282.067 382.093 281.324 382.4 280.55 382.4H101.85C101.075 382.4 100.333 382.093 99.7849 381.545C99.2373 380.997 98.9297 380.255 98.9297 379.48V379.24H98.9397Z" fill="#424242"/>
<path d="M100.049 275.27C99.5388 275.27 99.0488 275.27 98.4988 275.32C87.4988 276.2 78.6688 286.64 77.9788 299.5C77.821 302.333 78.0599 305.174 78.6888 307.94C81.1085 319.031 82.2724 330.359 82.1588 341.71V374.88C82.1588 377.28 83.8188 379.23 85.8688 379.23H175.679V275.23L100.049 275.27Z" fill="url(#paint3_linear_355_6793)"/>
<path d="M197.8 301.201C197.8 286.281 187.05 274.301 174.13 275.331C163.13 276.211 154.31 286.651 153.61 299.511C153.452 302.344 153.691 305.185 154.32 307.951C156.739 319.042 157.903 330.37 157.79 341.721V374.891C157.79 377.291 159.45 379.241 161.5 379.241H189.86C191.86 379.241 193.58 377.291 193.58 374.891V339.781C193.494 329.135 194.642 318.514 197 308.131C197.533 305.86 197.801 303.534 197.8 301.201Z" fill="#424242"/>
<path d="M401.419 284.08C402.287 284.083 403.136 283.83 403.861 283.352C404.585 282.875 405.152 282.194 405.492 281.396C405.831 280.597 405.928 279.716 405.769 278.863C405.61 278.01 405.203 277.223 404.599 276.6C402.599 274.54 399.319 272.86 394.099 272.86C388.879 272.86 385.639 274.54 383.609 276.6C383.006 277.223 382.599 278.009 382.44 278.861C382.281 279.713 382.377 280.593 382.715 281.391C383.053 282.189 383.619 282.87 384.342 283.348C385.065 283.827 385.913 284.081 386.779 284.08H401.419Z" fill="#939393"/>
<path d="M416.108 282.44C416.662 282.434 417.201 282.266 417.66 281.956C418.119 281.647 418.476 281.21 418.689 280.699C418.902 280.188 418.96 279.626 418.857 279.083C418.754 278.539 418.494 278.037 418.108 277.64C416.808 276.31 414.718 275.24 411.368 275.24C408.018 275.24 405.929 276.31 404.629 277.64C404.243 278.037 403.983 278.539 403.88 279.083C403.777 279.626 403.835 280.188 404.048 280.699C404.261 281.21 404.618 281.647 405.077 281.956C405.536 282.266 406.075 282.434 406.629 282.44H416.108Z" fill="#939393"/>
<path d="M378.998 281.17C378.998 281.17 379.568 287 401.478 287C423.388 287 423.968 281.17 423.968 281.17H378.998Z" fill="#424242"/>
<path d="M355.759 271.36C355.571 271.365 355.384 271.385 355.199 271.42V269.42C355.2 269.212 355.16 269.005 355.081 268.812C355.003 268.62 354.886 268.444 354.74 268.296C354.593 268.149 354.418 268.031 354.226 267.951C354.033 267.871 353.827 267.83 353.619 267.83H345.129C344.709 267.833 344.307 268.001 344.011 268.299C343.715 268.597 343.549 269 343.549 269.42V287H355.199V284.16C355.384 284.19 355.571 284.21 355.759 284.22C356.997 284.217 358.183 283.725 359.058 282.849C359.933 281.974 360.426 280.788 360.429 279.55V276C360.418 274.768 359.922 273.589 359.048 272.72C358.173 271.851 356.991 271.363 355.759 271.36ZM358.429 279.55C358.426 280.257 358.144 280.935 357.644 281.435C357.144 281.935 356.466 282.217 355.759 282.22C355.571 282.22 355.383 282.2 355.199 282.16V273.42C355.383 273.38 355.571 273.36 355.759 273.36C356.466 273.363 357.144 273.645 357.644 274.145C358.144 274.645 358.426 275.323 358.429 276.03V279.55Z" fill="#939393"/>
<path d="M365.338 287H321.918V382.4H365.338V287Z" fill="url(#paint4_linear_355_6793)"/>
<path d="M365.329 382.4H441.709V287H365.329V382.4Z" fill="#939393"/>
<path d="M437.707 382.4V291H369.327V382.4H437.707Z" fill="#454545"/>
<path d="M369.843 335.205H439.375V338.197H369.843V335.205Z" fill="#939393" stroke="#939393" stroke-width="1.00824"/>
<path d="M250.001 427.559C357.084 427.559 443.891 422.491 443.891 416.239C443.891 409.987 357.084 404.919 250.001 404.919C142.919 404.919 56.1113 409.987 56.1113 416.239C56.1113 422.491 142.919 427.559 250.001 427.559Z" fill="url(#paint5_linear_355_6793)"/>
<path d="M163.313 200.608C167.466 175.024 150.093 150.917 124.509 146.765C98.9251 142.612 74.8187 159.985 70.6659 185.569C66.513 211.153 83.8863 235.259 109.47 239.412C135.054 243.565 159.16 226.192 163.313 200.608Z" fill="#A3A3A3"/>
<path opacity="0.7" d="M163.313 200.608C167.466 175.024 150.093 150.917 124.509 146.765C98.9251 142.612 74.8187 159.985 70.6659 185.569C66.513 211.153 83.8863 235.259 109.47 239.412C135.054 243.565 159.16 226.192 163.313 200.608Z" fill="url(#paint6_linear_355_6793)"/>
<path d="M256.505 203.85C262.459 178.625 246.836 153.349 221.611 147.395C196.385 141.441 171.109 157.064 165.155 182.29C159.201 207.515 174.824 232.791 200.05 238.745C225.276 244.699 250.552 229.076 256.505 203.85Z" fill="#A3A3A3"/>
<path opacity="0.7" d="M256.505 203.85C262.459 178.625 246.836 153.349 221.611 147.395C196.385 141.441 171.109 157.064 165.155 182.29C159.201 207.515 174.824 232.791 200.05 238.745C225.276 244.699 250.552 229.076 256.505 203.85Z" fill="url(#paint7_linear_355_6793)"/>
<path d="M183.531 192.29C183.531 186.39 184.594 182.26 186.721 179.9C188.848 177.54 192.084 176.36 196.431 176.36C198.18 176.308 199.924 176.568 201.581 177.13C202.799 177.566 203.916 178.247 204.861 179.13C205.658 179.888 206.333 180.765 206.861 181.73C207.382 182.741 207.775 183.812 208.031 184.92C208.618 187.292 208.91 189.727 208.901 192.17C208.901 197.797 207.948 201.92 206.041 204.54C204.134 207.16 200.851 208.467 196.191 208.46C194.008 208.554 191.835 208.126 189.851 207.21C188.212 206.373 186.83 205.108 185.851 203.55C184.987 202.103 184.394 200.51 184.101 198.85C183.689 196.688 183.498 194.49 183.531 192.29ZM192.091 192.29C192.091 196.243 192.424 198.943 193.091 200.39C193.315 201.011 193.722 201.55 194.257 201.937C194.792 202.324 195.431 202.541 196.091 202.56C196.511 202.564 196.928 202.485 197.318 202.327C197.707 202.169 198.062 201.935 198.361 201.64C199.109 200.83 199.603 199.818 199.781 198.73C200.149 196.682 200.303 194.6 200.241 192.52C200.241 188.387 199.891 185.613 199.191 184.2C198.942 183.568 198.509 183.027 197.946 182.647C197.384 182.266 196.72 182.065 196.041 182.07C195.362 182.061 194.697 182.267 194.142 182.659C193.587 183.05 193.17 183.607 192.951 184.25C192.401 185.72 192.091 188.4 192.091 192.32V192.29Z" fill="#FAFAFA"/>
<path d="M303.798 212.656C329.684 211.353 349.613 189.313 348.31 163.427C347.008 137.541 324.968 117.612 299.082 118.914C273.196 120.217 253.267 142.257 254.569 168.143C255.871 194.029 277.912 213.958 303.798 212.656Z" fill="#A3A3A3"/>
<path opacity="0.7" d="M303.798 213.1C329.684 211.798 349.613 189.757 348.31 163.871C347.008 137.985 324.968 118.056 299.082 119.359C273.196 120.661 253.267 142.701 254.569 168.587C255.871 194.473 277.912 214.402 303.798 213.1Z" fill="url(#paint8_linear_355_6793)"/>
<path d="M444.214 203.86C450.168 178.635 434.545 153.359 409.32 147.405C384.094 141.451 358.818 157.074 352.864 182.3C346.91 207.525 362.533 232.801 387.759 238.755C412.985 244.709 438.261 229.086 444.214 203.86Z" fill="#A3A3A3"/>
<path opacity="0.7" d="M444.214 203.86C450.168 178.635 434.545 153.359 409.32 147.405C384.094 141.451 358.818 157.074 352.864 182.3C346.91 207.525 362.533 232.801 387.759 238.755C412.985 244.709 438.261 229.086 444.214 203.86Z" fill="url(#paint9_linear_355_6793)"/>
<path d="M398.551 244.35C397.225 244.35 395.953 243.823 395.015 242.886C394.078 241.948 393.551 240.676 393.551 239.35C393.551 238.024 394.078 236.752 395.015 235.814C395.953 234.877 397.225 234.35 398.551 234.35C406.844 234.352 414.952 231.895 421.849 227.288C428.745 222.682 434.121 216.134 437.296 208.473C440.471 200.811 441.303 192.38 439.686 184.246C438.07 176.112 434.077 168.64 428.213 162.775C422.35 156.91 414.878 152.915 406.745 151.296C398.611 149.678 390.179 150.507 382.517 153.681C374.855 156.854 368.306 162.228 363.698 169.124C359.09 176.019 356.631 184.127 356.631 192.42C356.631 206.193 351.16 219.401 341.421 229.14C331.682 238.879 318.474 244.35 304.701 244.35C290.928 244.35 277.72 238.879 267.981 229.14C258.242 219.401 252.771 206.193 252.771 192.42C252.771 181.299 248.353 170.634 240.49 162.771C232.626 154.908 221.961 150.49 210.841 150.49C199.72 150.49 189.055 154.908 181.192 162.771C173.328 170.634 168.911 181.299 168.911 192.42C168.911 202.692 165.865 212.733 160.158 221.273C154.451 229.813 146.339 236.469 136.849 240.399C127.359 244.329 116.916 245.356 106.842 243.351C96.7684 241.345 87.5154 236.398 80.2537 229.133C72.9919 221.868 68.0477 212.614 66.0462 202.539C64.0447 192.464 65.076 182.022 69.0095 172.533C72.943 163.045 79.6021 154.936 88.1446 149.232C96.6871 143.528 106.729 140.486 117.001 140.49C118.327 140.49 119.599 141.017 120.536 141.954C121.474 142.892 122.001 144.164 122.001 145.49C122.001 146.816 121.474 148.088 120.536 149.026C119.599 149.963 118.327 150.49 117.001 150.49C108.708 150.49 100.601 152.949 93.7057 157.556C86.8104 162.164 81.4361 168.712 78.2625 176.374C75.089 184.036 74.2586 192.467 75.8765 200.6C77.4944 208.734 81.4878 216.205 87.3518 222.069C93.2158 227.933 100.687 231.926 108.821 233.544C116.954 235.162 125.385 234.332 133.047 231.158C140.708 227.985 147.257 222.61 151.864 215.715C156.472 208.82 158.931 200.713 158.931 192.42C158.931 178.647 164.402 165.439 174.141 155.7C183.88 145.961 197.088 140.49 210.861 140.49C224.633 140.49 237.842 145.961 247.581 155.7C257.32 165.439 262.791 178.647 262.791 192.42C262.791 197.926 263.875 203.379 265.983 208.466C268.09 213.553 271.178 218.175 275.072 222.069C278.965 225.963 283.588 229.051 288.675 231.158C293.762 233.265 299.214 234.35 304.721 234.35C310.227 234.35 315.68 233.265 320.767 231.158C325.854 229.051 330.476 225.963 334.37 222.069C338.263 218.175 341.352 213.553 343.459 208.466C345.566 203.379 346.651 197.926 346.651 192.42C346.651 182.149 349.697 172.108 355.403 163.568C361.11 155.028 369.221 148.372 378.71 144.442C388.2 140.512 398.642 139.484 408.716 141.489C418.789 143.493 428.042 148.44 435.304 155.703C442.567 162.967 447.512 172.221 449.514 182.295C451.517 192.369 450.487 202.811 446.555 212.3C442.623 221.788 435.965 229.898 427.424 235.603C418.883 241.308 408.842 244.352 398.571 244.35H398.551Z" fill="url(#paint10_linear_355_6793)"/>
<path d="M190.18 408.741H197.52L198.25 391.721H190.91L190.18 408.741Z" fill="#FFC3BD"/>
<path opacity="0.2" d="M198.251 391.73L197.881 400.5H190.531L190.901 391.73H198.251Z" fill="black"/>
<path d="M136.33 402.969L143.51 404.519L150.72 388.679L143.54 387.119L136.33 402.969Z" fill="#FFC3BD"/>
<path opacity="0.2" d="M143.53 387.129L150.72 388.679L147 396.849L139.82 395.299L143.53 387.129Z" fill="black"/>
<path d="M174.469 169.251C171.949 173.681 169.409 178.251 166.979 182.801C164.549 187.351 162.169 191.931 160.149 196.491C159.619 197.641 159.149 198.771 158.709 199.901C158.709 199.901 158.709 199.971 158.709 200.051C158.673 200.339 158.673 200.632 158.709 200.921C158.892 201.867 159.191 202.787 159.599 203.661C160.064 204.711 160.584 205.736 161.159 206.731C163.76 211.041 166.65 215.171 169.809 219.091L166.029 223.091C161.552 219.792 157.519 215.931 154.029 211.601C152.001 209.152 150.432 206.357 149.399 203.351C149.092 202.377 148.904 201.37 148.839 200.351C148.785 199.745 148.785 199.136 148.839 198.531C148.873 198.194 148.927 197.86 148.999 197.531C148.999 197.371 149.079 197.201 149.119 197.031L149.249 196.601C149.689 195.261 150.119 193.901 150.609 192.601C152.528 187.507 154.717 182.52 157.169 177.661C159.589 172.841 162.119 168.181 164.939 163.521L174.469 169.251Z" fill="#FFC3BD"/>
<path d="M168.39 217.81L173.55 219.51L169.21 226.81C169.21 226.81 165.43 225.1 164.67 221.62L168.39 217.81Z" fill="#FFC3BD"/>
<path d="M180.581 222.33L175.561 227.95L169.211 226.81L173.551 219.51L180.581 222.33Z" fill="#FFC3BD"/>
<path d="M199.129 129.36C199.249 129.94 199.649 130.36 200.029 130.27C200.409 130.18 200.619 129.66 200.499 129.08C200.379 128.5 199.979 128.08 199.599 128.17C199.219 128.26 198.999 128.78 199.129 129.36Z" fill="#263238"/>
<path d="M199.6 130.36C200.652 131.993 201.924 133.473 203.38 134.76C203.041 135.124 202.626 135.41 202.165 135.597C201.703 135.783 201.207 135.866 200.71 135.84L199.6 130.36Z" fill="#ED847E"/>
<path d="M196.35 126.571C196.26 126.568 196.175 126.532 196.11 126.471C196.046 126.405 196.01 126.317 196.01 126.226C196.01 126.134 196.046 126.046 196.11 125.981C196.48 125.562 196.946 125.238 197.469 125.038C197.991 124.838 198.554 124.767 199.11 124.831C199.201 124.846 199.283 124.896 199.337 124.971C199.392 125.046 199.414 125.139 199.4 125.231C199.383 125.321 199.332 125.401 199.257 125.455C199.183 125.509 199.091 125.533 199 125.521C198.564 125.479 198.124 125.542 197.718 125.703C197.311 125.865 196.948 126.121 196.66 126.451C196.623 126.497 196.575 126.532 196.521 126.553C196.467 126.574 196.407 126.58 196.35 126.571Z" fill="#263238"/>
<path d="M182.59 137.519C183.59 142.899 184.69 152.749 180.93 156.329C180.93 156.329 182.4 161.779 192.39 161.779C203.39 161.779 197.64 156.329 197.64 156.329C191.64 154.899 191.8 150.459 192.84 146.279L182.59 137.519Z" fill="#FFC3BD"/>
<path d="M179.431 157.54C178.631 156.54 177.761 155.29 179.561 154.91C181.561 154.5 192.431 154.07 196.181 154.85C199.931 155.63 198.861 157.76 198.861 157.76L179.431 157.54Z" fill="white"/>
<path d="M146.311 405.52C146.607 405.625 146.922 405.67 147.236 405.653C147.55 405.636 147.858 405.556 148.141 405.42C148.25 405.319 148.326 405.187 148.356 405.042C148.387 404.897 148.371 404.745 148.311 404.61C148.279 404.496 148.221 404.392 148.144 404.304C148.066 404.216 147.969 404.146 147.861 404.1C146.861 403.62 144.591 404.55 144.491 404.59C144.46 404.604 144.433 404.626 144.414 404.655C144.395 404.683 144.383 404.716 144.381 404.75C144.382 404.783 144.392 404.815 144.41 404.843C144.427 404.871 144.452 404.894 144.481 404.91C145.068 405.177 145.681 405.381 146.311 405.52ZM147.501 404.34L147.711 404.41C147.774 404.437 147.83 404.478 147.875 404.53C147.92 404.582 147.953 404.643 147.971 404.71C148.071 405.02 147.971 405.12 147.911 405.15C147.521 405.49 146.051 405.15 145.021 404.76C145.807 404.441 146.653 404.297 147.501 404.34Z" fill="#A3A3A3"/>
<path d="M144.52 404.92H144.6C145.44 404.68 147.21 403.41 147.23 402.58C147.233 402.451 147.191 402.324 147.11 402.221C147.03 402.119 146.917 402.048 146.79 402.02C146.665 401.975 146.531 401.957 146.399 401.968C146.266 401.978 146.137 402.016 146.02 402.08C145.02 402.58 144.42 404.61 144.39 404.7C144.375 404.726 144.367 404.756 144.367 404.785C144.367 404.815 144.375 404.845 144.39 404.87C144.426 404.902 144.472 404.92 144.52 404.92ZM146.6 402.32H146.67C146.89 402.39 146.89 402.5 146.89 402.54C146.89 403.03 145.7 404.02 144.89 404.43C145.121 403.622 145.587 402.902 146.23 402.36C146.346 402.31 146.475 402.296 146.6 402.32Z" fill="#A3A3A3"/>
<path d="M200.47 409.111C201.42 409.111 202.33 408.981 202.63 408.561C202.708 408.45 202.75 408.317 202.75 408.181C202.75 408.045 202.708 407.912 202.63 407.801C202.569 407.698 202.487 407.609 202.391 407.539C202.295 407.469 202.186 407.418 202.07 407.391C200.85 407.061 198.28 408.521 198.18 408.591C198.146 408.606 198.119 408.632 198.103 408.665C198.086 408.698 198.082 408.735 198.09 408.771C198.097 408.805 198.114 408.837 198.139 408.862C198.164 408.887 198.195 408.904 198.23 408.911C198.969 409.041 199.719 409.107 200.47 409.111ZM201.64 407.691C201.749 407.675 201.86 407.675 201.97 407.691C202.04 407.703 202.108 407.731 202.166 407.773C202.225 407.814 202.274 407.868 202.31 407.931C202.44 408.151 202.39 408.261 202.31 408.321C201.97 408.791 200.11 408.801 198.74 408.611C199.637 408.118 200.622 407.806 201.64 407.691Z" fill="#A3A3A3"/>
<path d="M198.25 408.909H198.32C199.21 408.509 200.97 406.909 200.83 406.089C200.83 405.889 200.66 405.649 200.19 405.599C200.012 405.579 199.831 405.595 199.66 405.647C199.488 405.698 199.328 405.784 199.19 405.899C198.26 406.669 198.06 408.649 198.05 408.729C198.046 408.76 198.051 408.791 198.063 408.819C198.075 408.847 198.095 408.871 198.12 408.889C198.16 408.911 198.206 408.918 198.25 408.909ZM200.05 405.909H200.15C200.46 405.909 200.48 406.059 200.49 406.099C200.57 406.599 199.38 407.849 198.49 408.389C198.586 407.552 198.935 406.763 199.49 406.129C199.652 406.007 199.848 405.937 200.05 405.929V405.909Z" fill="#A3A3A3"/>
<path d="M144.2 403.8L136.13 402.06C135.989 402.027 135.84 402.045 135.71 402.111C135.58 402.177 135.478 402.286 135.42 402.42L132.62 408.49C132.552 408.637 132.518 408.799 132.522 408.961C132.525 409.124 132.565 409.283 132.64 409.428C132.714 409.572 132.82 409.698 132.95 409.795C133.08 409.893 133.231 409.959 133.39 409.99C136.22 410.56 137.62 410.69 141.17 411.46C143.35 411.93 148.28 413.13 151.29 413.78C154.3 414.43 155.34 411.54 154.17 411C148.9 408.59 146.7 406.47 145.27 404.5C145.011 404.144 144.63 403.895 144.2 403.8Z" fill="#263238"/>
<path d="M197.47 407.89H189.47C189.324 407.89 189.183 407.94 189.069 408.03C188.954 408.121 188.874 408.248 188.84 408.39L187.39 414.92C187.356 415.077 187.357 415.241 187.394 415.397C187.432 415.554 187.504 415.701 187.606 415.826C187.708 415.951 187.837 416.051 187.983 416.119C188.129 416.188 188.289 416.222 188.45 416.22C191.34 416.22 195.53 416.01 199.16 416.01C203.42 416.01 207.09 416.24 212.08 416.24C215.08 416.24 215.93 413.19 214.67 412.91C208.92 411.66 204.23 411.52 199.26 408.46C198.729 408.106 198.109 407.908 197.47 407.89Z" fill="#263238"/>
<path d="M200.111 158.14C205.811 157.55 211.711 156.8 217.421 155.9C223.037 155.105 228.581 153.868 234.001 152.2C234.631 151.99 235.231 151.76 235.831 151.52C236.327 151.32 236.808 151.087 237.271 150.82C238.371 150.2 239.581 149.45 240.761 148.66C243.141 147.07 245.561 145.39 247.951 143.66L262.461 133.23L266.141 137.34C262.061 141.85 257.811 146.13 253.341 150.26C251.101 152.32 248.821 154.36 246.341 156.32C245.111 157.32 243.881 158.32 242.431 159.23C241.636 159.773 240.804 160.261 239.941 160.69C239.161 161.06 238.381 161.41 237.611 161.69C234.629 162.896 231.569 163.898 228.451 164.69C225.451 165.51 222.381 166.16 219.351 166.74C213.284 167.903 207.159 168.737 201.001 169.24L200.111 158.14Z" fill="#FFC3BD"/>
<path d="M167.782 158C160.892 159.58 149.332 193.77 149.332 193.77L160.582 197.51C160.582 197.51 172.062 180.51 175.962 172.3C180.002 163.7 174.822 156.38 167.782 158Z" fill="#263238"/>
<path d="M162.54 195.82C162.54 195.82 151.54 193.72 149.01 192.16C148.13 193.43 147.01 198.06 147.79 199.42C148.57 200.78 158.79 202.76 160.16 201.95C161.53 201.14 162.54 195.82 162.54 195.82Z" fill="#263238"/>
<path opacity="0.2" d="M162.54 195.82C162.54 195.82 151.54 193.72 149.01 192.16C148.13 193.43 147.01 198.06 147.79 199.42C148.57 200.78 158.79 202.76 160.16 201.95C161.53 201.14 162.54 195.82 162.54 195.82Z" fill="#FAFAFA"/>
<path d="M208.941 158.369C208.941 158.369 216.751 167.199 209.371 221.869H170.081C169.811 215.869 173.601 186.409 167.781 157.989C172.124 157.153 176.517 156.598 180.931 156.329C186.497 156.009 192.076 156.009 197.641 156.329C201.455 156.715 205.233 157.397 208.941 158.369Z" fill="#263238"/>
<path d="M195 170.059C202.05 177.329 237.39 162.829 237.39 162.829L231.72 151.919C231.72 151.919 209.62 156.509 200.54 156.329C189.34 156.099 189.67 164.529 195 170.059Z" fill="#263238"/>
<path d="M230 151.71C230 151.71 235.63 161.42 236.08 164.33C237.63 164.17 241.83 161.96 242.38 160.5C242.93 159.04 237.71 150.02 236.19 149.5C234.67 148.98 230 151.71 230 151.71Z" fill="#263238"/>
<path opacity="0.2" d="M230 151.71C230 151.71 235.63 161.42 236.08 164.33C237.63 164.17 241.83 161.96 242.38 160.5C242.93 159.04 237.71 150.02 236.19 149.5C234.67 148.98 230 151.71 230 151.71Z" fill="#FAFAFA"/>
<path d="M262.23 133.33L267.23 127.44L272.61 133.44C272.61 133.44 269.29 139.01 264.02 138.13L262.23 133.33Z" fill="#FFC3BD"/>
<path d="M274.26 124.66L279.11 127.44L272.66 133.41L267.27 127.44L274.26 124.66Z" fill="#FFC3BD"/>
<path d="M179.509 132.059C181.399 139.109 182.149 143.319 186.509 146.249C193.049 150.659 201.189 145.599 201.439 138.139C201.669 131.419 198.549 121.029 190.989 119.609C189.323 119.282 187.6 119.388 185.986 119.916C184.372 120.444 182.92 121.376 181.769 122.625C180.618 123.873 179.806 125.396 179.41 127.047C179.015 128.699 179.049 130.424 179.509 132.059Z" fill="#FFC3BD"/>
<path d="M194.94 105.28C199.94 115.8 173.99 109.97 173.81 119.52C173.81 119.92 173.81 120.28 173.81 120.63C173.07 119.94 171.58 119.18 169.01 120.22C170.517 120.789 171.882 121.679 173.01 122.83C172.01 123.68 170.49 124.13 171.14 128.2C171.45 130.2 173.44 133.2 176.03 135.86C177.16 137.67 180.83 141.78 180.76 142.77C181.321 142.772 181.876 142.656 182.39 142.43C182.552 142.804 182.623 143.212 182.6 143.62C183.96 143.88 185.03 143.69 185.15 142.75C186.26 142.85 187.06 142.55 187.1 141.66C188.16 141.81 188.89 141.47 188.84 140.33C191.36 138.95 192.22 136.04 192.68 132.79C193.214 128.677 195.273 124.915 198.45 122.25C203.54 118.18 205.54 111.76 194.94 105.28Z" fill="#263238"/>
<path d="M189.63 131.69C190.118 133.442 191.173 134.982 192.63 136.07C194.55 137.49 195.97 136.07 195.84 133.93C195.72 131.93 194.57 128.93 192.46 128.32C190.35 127.71 189.08 129.57 189.63 131.69Z" fill="#FFC3BD"/>
<path d="M195.431 221.87C195.431 221.87 187.091 278 182.521 299C177.521 322 150.701 395.88 150.701 395.88L137.551 393.03C137.551 393.03 157.621 323.9 160.481 301.09C163.581 276.34 170.081 221.83 170.081 221.83L195.431 221.87Z" fill="#A3A3A3"/>
<path opacity="0.5" d="M195.431 221.87C195.431 221.87 187.091 278 182.521 299C177.521 322 150.701 395.88 150.701 395.88L137.551 393.03C137.551 393.03 157.621 323.9 160.481 301.09C163.581 276.34 170.081 221.83 170.081 221.83L195.431 221.87Z" fill="url(#paint11_linear_355_6793)"/>
<path opacity="0.3" d="M190.16 241.869C180.52 243.759 181.54 279.709 182.7 298.199C185.48 285.129 189.55 259.979 192.33 242.129C191.658 241.797 190.892 241.706 190.16 241.869Z" fill="black"/>
<path d="M209.371 221.869C209.371 221.869 210.371 276.799 209.581 299.199C208.751 322.499 200.581 398.799 200.581 398.799H188.171C188.171 398.799 187.711 323.859 187.171 300.979C186.561 275.979 183.551 221.869 183.551 221.869H209.371Z" fill="#A3A3A3"/>
<path opacity="0.5" d="M209.371 221.869C209.371 221.869 210.371 276.799 209.581 299.199C208.751 322.499 200.581 398.799 200.581 398.799H188.171C188.171 398.799 187.711 323.859 187.171 300.979C186.561 275.979 183.551 221.869 183.551 221.869H209.371Z" fill="url(#paint12_linear_355_6793)"/>
<path opacity="0.2" d="M198 389.861C197.984 389.86 197.967 389.855 197.953 389.847C197.938 389.839 197.925 389.828 197.914 389.815C197.904 389.802 197.896 389.787 197.892 389.77C197.888 389.754 197.888 389.737 197.89 389.721C200.08 368.621 205.25 317.541 205.89 299.191C206.56 280.451 205.96 238.511 205.75 226.101C205.75 226.066 205.764 226.033 205.788 226.009C205.813 225.984 205.846 225.971 205.88 225.971C205.912 225.971 205.943 225.983 205.965 226.006C205.988 226.028 206 226.059 206 226.091C206.21 238.501 206.81 280.451 206.14 299.201C205.49 317.561 200.32 368.641 198.14 389.751C198.139 389.767 198.135 389.784 198.127 389.799C198.119 389.813 198.108 389.826 198.095 389.837C198.082 389.847 198.066 389.855 198.05 389.859C198.034 389.863 198.017 389.864 198 389.861Z" fill="#FAFAFA"/>
<path d="M153.851 391.53C153.911 391.53 151.401 396.28 151.401 396.28L136.611 393.08L137.851 388.63L153.851 391.53Z" fill="#263238"/>
<path d="M203 393.84C203.06 393.84 202.3 399.01 202.3 399.01H187.17L186.76 394.4L203 393.84Z" fill="#263238"/>
<defs>
<linearGradient id="paint0_linear_355_6793" x1="192.561" y1="301.046" x2="256.114" y2="364.353" gradientUnits="userSpaceOnUse">
<stop stop-color="#727272"/>
<stop offset="1" stop-color="#424242"/>
</linearGradient>
<linearGradient id="paint1_linear_355_6793" x1="95.0695" y1="269.92" x2="135.269" y2="347.257" gradientUnits="userSpaceOnUse">
<stop stop-color="#727272"/>
<stop offset="1" stop-color="#424242"/>
</linearGradient>
<linearGradient id="paint2_linear_355_6793" x1="170.204" y1="321.809" x2="172.598" y2="338.625" gradientUnits="userSpaceOnUse">
<stop stop-color="#727272"/>
<stop offset="1" stop-color="#424242"/>
</linearGradient>
<linearGradient id="paint3_linear_355_6793" x1="67.4988" y1="301.001" x2="129.999" y2="376.001" gradientUnits="userSpaceOnUse">
<stop stop-color="#727272"/>
<stop offset="1" stop-color="#424242"/>
</linearGradient>
<linearGradient id="paint4_linear_355_6793" x1="317.284" y1="310.639" x2="367.925" y2="340.067" gradientUnits="userSpaceOnUse">
<stop stop-color="#727272"/>
<stop offset="1" stop-color="#424242"/>
</linearGradient>
<linearGradient id="paint5_linear_355_6793" x1="14.7223" y1="410.529" x2="15.9848" y2="438.136" gradientUnits="userSpaceOnUse">
<stop stop-color="#727272"/>
<stop offset="1" stop-color="#424242"/>
</linearGradient>
<linearGradient id="paint6_linear_355_6793" x1="109.47" y1="239.412" x2="124.509" y2="146.765" gradientUnits="userSpaceOnUse">
<stop stop-color="#29323C"/>
<stop offset="1" stop-color="#485563"/>
</linearGradient>
<linearGradient id="paint7_linear_355_6793" x1="200.05" y1="238.745" x2="221.611" y2="147.395" gradientUnits="userSpaceOnUse">
<stop stop-color="#29323C"/>
<stop offset="1" stop-color="#485563"/>
</linearGradient>
<linearGradient id="paint8_linear_355_6793" x1="254.569" y1="168.587" x2="348.31" y2="163.871" gradientUnits="userSpaceOnUse">
<stop stop-color="#29323C"/>
<stop offset="1" stop-color="#485563"/>
</linearGradient>
<linearGradient id="paint9_linear_355_6793" x1="387.759" y1="238.755" x2="409.32" y2="147.405" gradientUnits="userSpaceOnUse">
<stop stop-color="#29323C"/>
<stop offset="1" stop-color="#485563"/>
</linearGradient>
<linearGradient id="paint10_linear_355_6793" x1="65.0508" y1="192.42" x2="450.511" y2="192.42" gradientUnits="userSpaceOnUse">
<stop stop-color="#00DBDE"/>
<stop offset="1" stop-color="#FC00FF"/>
</linearGradient>
<linearGradient id="paint11_linear_355_6793" x1="137.551" y1="308.855" x2="195.431" y2="308.855" gradientUnits="userSpaceOnUse">
<stop stop-color="#29323C"/>
<stop offset="1" stop-color="#485563"/>
</linearGradient>
<linearGradient id="paint12_linear_355_6793" x1="183.551" y1="310.334" x2="209.885" y2="310.334" gradientUnits="userSpaceOnUse">
<stop stop-color="#29323C"/>
<stop offset="1" stop-color="#485563"/>
</linearGradient>
</defs>
</svg>
